<svg xmlns="http://www.w3.org/2000/svg" xmlns:xlink="http://www.w3.org/1999/xlink" width="30" height="35" viewBox="0 0 30 35">
  <defs>
    <style>
      .cls-1 {
        fill: none;
      }

      .cls-2 {
        fill: #f7c472;
      }

      .cls-3 {
        clip-path: url(#clip-path);
      }

      .cls-4 {
        fill: #f4b334;
      }
    </style>
    <clipPath id="clip-path">
      <rect id="crop" class="cls-1" width="30" height="35" transform="translate(0.223 -0.388)"/>
    </clipPath>
  </defs>
  <g id="Vector_Smart_Object_copy_8" data-name="Vector Smart Object copy 8" transform="translate(0.064 0.431)">
    <g id="Vector_Smart_Object_copy_8-2" data-name="Vector Smart Object copy 8" class="cls-3" transform="matrix(-1, 0, 0, -1, 30.16, 34.181)">
      <g id="Group_21" data-name="Group 21" transform="translate(-8.722 0)">
        <g id="Group_19" data-name="Group 19" transform="translate(14.029)">
          <path id="Path_13" data-name="Path 13" class="cls-4" d="M1.18.968h0a2.906,2.906,0,0,0,0,4.677l11.094,9.107a2.906,2.906,0,0,1,0,4.677L1.18,28.535a2.907,2.907,0,0,0,0,4.678h0a4.676,4.676,0,0,0,5.7,0L23.673,19.429a2.907,2.907,0,0,0,0-4.677L6.88.969A4.677,4.677,0,0,0,1.18.968Z" transform="translate(0)"/>
        </g>
        <g id="Group_20" data-name="Group 20" transform="translate(0 6.539)">
          <path id="Path_14" data-name="Path 14" class="cls-4" d="M1.18.969h0a2.907,2.907,0,0,0,0,4.677L4.308,8.213a2.906,2.906,0,0,1,0,4.677L1.18,15.457a2.907,2.907,0,0,0,0,4.677h0a4.676,4.676,0,0,0,5.7,0l8.828-7.244a2.907,2.907,0,0,0,0-4.678L6.879.968A4.677,4.677,0,0,0,1.18.969Z"/>
        </g>
      </g>
    </g>
    <path id="Color_Overlay" data-name="Color Overlay" class="cls-2" d="M17.878,33.036,1.174,19.326A3.014,3.014,0,0,1,0,17.031V16.97a3.017,3.017,0,0,1,1.174-2.3L17.878.963a4.653,4.653,0,0,1,5.669,0,2.892,2.892,0,0,1,0,4.653L12.512,14.674a2.892,2.892,0,0,0,0,4.652l11.035,9.058a2.891,2.891,0,0,1,0,4.652h0a4.653,4.653,0,0,1-5.669,0Zm5.175-13.71a2.892,2.892,0,0,1,0-4.653L30,8.973V25.028Z" transform="translate(-0.064 -0.431)"/>
  </g>
</svg>
