<svg xmlns="http://www.w3.org/2000/svg" xmlns:xlink="http://www.w3.org/1999/xlink" width="30" height="35" viewBox="0 0 30 35">
  <defs>
    <style>
      .cls-1 {
        fill: none;
      }

      .cls-2 {
        fill: #f7c472;
      }

      .cls-3 {
        clip-path: url(#clip-path);
      }

      .cls-4 {
        fill: #f4b334;
      }
    </style>
    <clipPath id="clip-path">
      <rect id="crop" class="cls-1" width="30" height="35" transform="translate(-0.165 -0.431)"/>
    </clipPath>
  </defs>
  <g id="Vector_Smart_Object_copy_7" data-name="Vector Smart Object copy 7" transform="translate(0.165 0.431)">
    <g id="Vector_Smart_Object_copy_7-2" data-name="Vector Smart Object copy 7" class="cls-3" transform="translate(0 0)">
      <g id="Group_3" data-name="Group 3" transform="translate(-8.722 0)">
        <g id="Group_1" data-name="Group 1" transform="translate(14.029)">
          <path id="Path_1" data-name="Path 1" class="cls-4" d="M6.459,262.114h0a2.906,2.906,0,0,1,0-4.677l11.094-9.107a2.906,2.906,0,0,0,0-4.677L6.459,234.548a2.907,2.907,0,0,1,0-4.678h0a4.676,4.676,0,0,1,5.7,0l16.793,13.783a2.907,2.907,0,0,1,0,4.677L12.158,262.113A4.677,4.677,0,0,1,6.459,262.114Z" transform="translate(-5.278 -228.901)"/>
        </g>
        <g id="Group_2" data-name="Group 2" transform="translate(0 6.539)">
          <path id="Path_2" data-name="Path 2" class="cls-4" d="M-7.5,255.539h0a2.907,2.907,0,0,1,0-4.677l3.128-2.568a2.906,2.906,0,0,0,0-4.677L-7.5,241.051a2.907,2.907,0,0,1,0-4.677h0a4.676,4.676,0,0,1,5.7,0l8.828,7.244a2.907,2.907,0,0,1,0,4.678L-1.8,255.54A4.677,4.677,0,0,1-7.5,255.539Z" transform="translate(8.676 -235.406)"/>
        </g>
      </g>
    </g>
    <path id="Color_Overlay" data-name="Color Overlay" class="cls-2" d="M6.453,33.038h0a2.891,2.891,0,0,1,0-4.652l11.035-9.059a2.892,2.892,0,0,0,0-4.652L6.453,5.616a2.892,2.892,0,0,1,0-4.653A4.479,4.479,0,0,1,9.24,0h.094a4.483,4.483,0,0,1,2.788.963l16.7,13.711A3.017,3.017,0,0,1,30,16.97v.061a3.014,3.014,0,0,1-1.174,2.3l-16.7,13.711A4.481,4.481,0,0,1,9.287,34,4.481,4.481,0,0,1,6.453,33.038ZM0,8.973l6.947,5.7a2.891,2.891,0,0,1,0,4.653L0,25.029Z" transform="translate(-0.165 -0.431)"/>
  </g>
</svg>
