<svg id="svg" version="1.1" xmlns="http://www.w3.org/2000/svg" xmlns:xlink="http://www.w3.org/1999/xlink" width="400" height="286.8085106382979" viewBox="0, 0, 400,286.8085106382979"><g id="svgg"><path id="path0" d="M399.574 5.082 C 399.574 5.537,399.431 6.183,399.257 6.518 C 399.082 6.853,398.938 7.433,398.937 7.807 C 398.937 8.180,398.840 8.545,398.723 8.617 C 398.606 8.689,398.511 9.162,398.511 9.667 C 398.511 10.225,398.385 10.690,398.191 10.851 C 398.016 10.997,397.869 11.415,397.866 11.781 C 397.862 12.147,397.718 12.633,397.546 12.860 C 397.375 13.087,397.234 13.584,397.234 13.964 C 397.234 14.345,397.138 14.715,397.021 14.787 C 396.904 14.860,396.809 15.193,396.809 15.529 C 396.809 15.865,396.665 16.283,396.489 16.459 C 396.314 16.634,396.170 17.060,396.170 17.406 C 396.170 17.751,396.027 18.152,395.851 18.298 C 395.676 18.444,395.532 18.886,395.532 19.281 C 395.532 19.677,395.436 20.000,395.319 20.000 C 395.202 20.000,395.106 20.280,395.106 20.623 C 395.106 20.966,394.963 21.390,394.787 21.565 C 394.612 21.741,394.468 22.119,394.468 22.406 C 394.468 22.692,394.324 23.046,394.149 23.191 C 393.973 23.337,393.830 23.732,393.830 24.069 C 393.830 24.405,393.757 24.681,393.669 24.681 C 393.508 24.681,393.061 25.811,392.828 26.809 C 392.760 27.101,392.574 27.417,392.416 27.511 C 392.257 27.604,392.128 27.915,392.128 28.202 C 392.128 28.489,392.036 28.723,391.925 28.723 C 391.813 28.723,391.658 29.060,391.581 29.470 C 391.504 29.881,391.356 30.270,391.252 30.334 C 391.149 30.398,391.064 30.639,391.064 30.870 C 391.064 31.101,390.920 31.345,390.745 31.412 C 390.569 31.480,390.426 31.752,390.426 32.018 C 390.426 32.284,390.282 32.620,390.106 32.766 C 389.931 32.912,389.787 33.211,389.787 33.430 C 389.787 33.650,389.691 33.830,389.574 33.830 C 389.457 33.830,389.362 34.010,389.362 34.229 C 389.362 34.449,389.218 34.748,389.043 34.894 C 388.867 35.039,388.723 35.327,388.723 35.532 C 388.723 35.737,388.580 36.025,388.404 36.170 C 388.229 36.316,388.085 36.615,388.085 36.835 C 388.085 37.054,387.989 37.234,387.872 37.234 C 387.755 37.234,387.660 37.406,387.660 37.617 C 387.660 37.828,387.553 38.107,387.422 38.237 C 387.132 38.528,386.650 39.337,386.468 39.840 C 386.394 40.045,386.259 40.213,386.168 40.213 C 386.078 40.213,385.944 40.452,385.870 40.745 C 385.797 41.037,385.643 41.277,385.528 41.277 C 385.413 41.277,385.319 41.471,385.319 41.709 C 385.319 41.947,385.176 42.196,385.000 42.263 C 384.824 42.331,384.681 42.469,384.681 42.570 C 384.681 42.877,382.718 45.957,382.522 45.957 C 382.422 45.957,382.334 46.077,382.326 46.223 C 382.318 46.370,381.792 47.207,381.157 48.085 C 380.522 48.963,379.738 50.061,379.416 50.526 C 379.094 50.991,378.471 51.733,378.032 52.175 C 377.593 52.617,377.234 53.074,377.234 53.191 C 377.234 53.309,377.145 53.404,377.036 53.404 C 376.926 53.404,376.781 53.580,376.713 53.796 C 376.596 54.163,369.433 61.520,368.290 62.447 C 368.001 62.681,367.334 63.206,366.808 63.615 C 366.282 64.023,365.613 64.574,365.321 64.838 C 365.030 65.103,364.681 65.319,364.546 65.319 C 364.411 65.319,364.246 65.463,364.178 65.638 C 364.111 65.814,363.909 65.957,363.730 65.957 C 363.551 65.957,363.404 66.038,363.404 66.136 C 363.404 66.234,363.022 66.497,362.556 66.721 C 362.089 66.945,361.706 67.190,361.705 67.266 C 361.702 67.390,361.064 67.763,359.309 68.666 C 358.987 68.832,358.723 69.056,358.723 69.165 C 358.723 69.273,358.525 69.362,358.283 69.362 C 358.040 69.362,357.698 69.505,357.523 69.681 C 357.347 69.856,357.019 70.000,356.793 70.000 C 356.568 70.000,356.383 70.096,356.383 70.213 C 356.383 70.330,356.203 70.426,355.983 70.426 C 355.764 70.426,355.465 70.569,355.319 70.745 C 355.173 70.920,354.886 71.064,354.681 71.064 C 354.475 71.064,354.188 71.207,354.043 71.383 C 353.897 71.559,353.598 71.702,353.378 71.702 C 353.158 71.702,352.979 71.798,352.979 71.915 C 352.979 72.032,352.799 72.128,352.579 72.128 C 352.360 72.128,352.061 72.271,351.915 72.447 C 351.769 72.622,351.482 72.766,351.277 72.766 C 351.071 72.766,350.784 72.910,350.638 73.085 C 350.493 73.261,350.247 73.404,350.092 73.404 C 349.937 73.404,349.360 73.644,348.809 73.936 C 348.259 74.229,347.629 74.468,347.408 74.468 C 347.188 74.468,346.953 74.612,346.885 74.787 C 346.818 74.963,346.580 75.106,346.357 75.106 C 345.950 75.106,345.815 75.158,344.504 75.815 C 344.114 76.010,343.623 76.170,343.413 76.170 C 343.203 76.170,342.912 76.314,342.766 76.489 C 342.620 76.665,342.329 76.809,342.119 76.809 C 341.909 76.809,341.418 76.968,341.028 77.164 C 339.697 77.831,339.580 77.872,339.039 77.872 C 338.741 77.872,338.442 78.016,338.375 78.191 C 338.307 78.367,337.999 78.514,337.690 78.517 C 337.381 78.521,336.942 78.665,336.715 78.837 C 336.487 79.008,336.033 79.149,335.704 79.149 C 335.375 79.149,335.106 79.245,335.106 79.362 C 335.106 79.479,334.826 79.574,334.483 79.574 C 334.141 79.574,333.717 79.718,333.541 79.894 C 333.366 80.069,332.940 80.213,332.594 80.213 C 332.249 80.213,331.848 80.356,331.702 80.532 C 331.556 80.707,331.120 80.851,330.731 80.851 C 330.343 80.851,329.966 80.947,329.894 81.064 C 329.821 81.181,329.440 81.277,329.045 81.277 C 328.651 81.277,328.185 81.420,328.009 81.596 C 327.834 81.771,327.372 81.918,326.983 81.922 C 326.595 81.925,326.091 82.069,325.864 82.241 C 325.636 82.413,325.092 82.553,324.653 82.553 C 324.214 82.553,323.796 82.649,323.723 82.766 C 323.651 82.883,323.233 82.979,322.794 82.979 C 322.355 82.979,321.810 83.119,321.583 83.291 C 321.356 83.463,320.782 83.607,320.307 83.610 C 319.832 83.614,319.257 83.758,319.030 83.929 C 318.803 84.101,318.181 84.245,317.649 84.249 C 317.116 84.252,316.590 84.340,316.479 84.444 C 316.368 84.548,315.706 84.692,315.009 84.765 C 314.312 84.837,313.647 84.991,313.531 85.108 C 313.414 85.224,312.788 85.323,312.138 85.327 C 311.489 85.331,310.718 85.471,310.426 85.638 C 310.131 85.806,309.318 85.946,308.606 85.950 C 307.898 85.954,307.224 86.053,307.107 86.169 C 306.991 86.286,306.011 86.444,304.929 86.521 C 303.848 86.598,302.914 86.742,302.852 86.841 C 302.791 86.940,301.791 87.021,300.630 87.021 C 299.108 87.021,298.266 87.125,297.611 87.394 C 296.216 87.965,261.966 87.964,260.915 87.392 C 260.385 87.103,259.715 87.021,257.895 87.021 C 256.609 87.021,255.507 86.940,255.446 86.841 C 255.384 86.742,254.357 86.601,253.163 86.529 C 251.969 86.456,250.893 86.298,250.773 86.177 C 250.652 86.056,249.825 85.957,248.934 85.957 C 247.840 85.957,247.181 85.856,246.902 85.645 C 246.646 85.451,245.993 85.330,245.184 85.326 C 244.466 85.322,243.634 85.192,243.334 85.037 C 243.035 84.882,242.234 84.733,241.555 84.705 C 240.875 84.678,240.228 84.566,240.117 84.456 C 240.006 84.346,239.384 84.252,238.734 84.249 C 238.035 84.245,237.385 84.114,237.140 83.929 C 236.907 83.753,236.258 83.614,235.651 83.610 C 235.044 83.606,234.394 83.467,234.161 83.291 C 233.933 83.118,233.297 82.979,232.738 82.979 C 232.182 82.979,231.668 82.883,231.596 82.766 C 231.523 82.649,231.003 82.553,230.439 82.553 C 229.787 82.553,229.317 82.437,229.149 82.234 C 228.981 82.032,228.512 81.915,227.872 81.915 C 227.233 81.915,226.763 81.798,226.596 81.596 C 226.435 81.402,225.969 81.277,225.412 81.277 C 224.907 81.277,224.434 81.181,224.362 81.064 C 224.289 80.947,223.871 80.851,223.432 80.851 C 222.994 80.851,222.449 80.710,222.222 80.539 C 221.994 80.367,221.473 80.220,221.064 80.213 C 220.654 80.205,220.133 80.059,219.906 79.887 C 219.679 79.715,219.223 79.574,218.893 79.574 C 218.562 79.574,218.126 79.484,217.923 79.373 C 217.719 79.263,217.194 79.115,216.755 79.045 C 216.316 78.974,215.957 78.825,215.957 78.714 C 215.957 78.602,215.586 78.511,215.132 78.511 C 214.659 78.511,214.195 78.375,214.043 78.191 C 213.897 78.016,213.460 77.872,213.072 77.872 C 212.683 77.872,212.306 77.777,212.234 77.660 C 212.162 77.543,211.893 77.446,211.636 77.445 C 211.380 77.445,210.896 77.301,210.561 77.126 C 210.226 76.952,209.687 76.809,209.363 76.809 C 209.040 76.809,208.656 76.665,208.511 76.489 C 208.365 76.314,207.994 76.167,207.687 76.163 C 207.379 76.160,206.942 76.016,206.715 75.844 C 206.487 75.672,206.086 75.532,205.823 75.532 C 205.560 75.532,205.285 75.436,205.213 75.319 C 205.140 75.202,204.811 75.106,204.482 75.106 C 204.152 75.106,203.763 74.963,203.617 74.787 C 203.471 74.612,203.088 74.468,202.766 74.468 C 202.444 74.468,202.061 74.324,201.915 74.149 C 201.769 73.973,201.428 73.830,201.157 73.830 C 200.885 73.830,200.604 73.734,200.532 73.617 C 200.460 73.500,200.116 73.404,199.768 73.404 C 199.402 73.404,199.084 73.270,199.013 73.085 C 198.945 72.908,198.629 72.766,198.301 72.766 C 197.977 72.766,197.592 72.622,197.447 72.447 C 197.301 72.271,196.960 72.128,196.689 72.128 C 196.417 72.128,196.136 72.032,196.064 71.915 C 195.992 71.798,195.753 71.702,195.535 71.702 C 195.316 71.702,194.993 71.559,194.818 71.383 C 194.642 71.207,194.308 71.064,194.075 71.064 C 193.843 71.064,193.621 70.986,193.582 70.890 C 193.543 70.794,192.840 70.405,192.021 70.024 C 191.202 69.644,190.388 69.243,190.213 69.133 C 190.037 69.023,189.750 68.878,189.574 68.810 C 189.399 68.742,188.775 68.455,188.188 68.173 C 187.602 67.890,186.966 67.660,186.775 67.660 C 186.584 67.660,186.373 67.516,186.306 67.340 C 186.239 67.165,186.003 67.021,185.783 67.021 C 185.563 67.021,184.932 66.782,184.382 66.489 C 183.832 66.197,183.158 65.957,182.884 65.957 C 182.610 65.957,182.331 65.814,182.263 65.638 C 182.193 65.455,181.876 65.319,181.519 65.319 C 181.162 65.319,180.844 65.183,180.774 65.000 C 180.703 64.813,180.384 64.681,180.007 64.681 C 179.652 64.681,179.362 64.585,179.362 64.468 C 179.362 64.351,179.071 64.255,178.717 64.255 C 178.340 64.255,178.021 64.123,177.949 63.936 C 177.875 63.742,177.553 63.617,177.128 63.617 C 176.702 63.617,176.381 63.492,176.306 63.298 C 176.235 63.113,175.917 62.979,175.551 62.979 C 175.203 62.979,174.860 62.883,174.787 62.766 C 174.715 62.649,174.386 62.553,174.056 62.553 C 173.726 62.553,173.337 62.410,173.191 62.234 C 173.046 62.059,172.615 61.915,172.234 61.915 C 171.853 61.915,171.422 61.771,171.277 61.596 C 171.131 61.420,170.688 61.277,170.293 61.277 C 169.898 61.277,169.574 61.181,169.574 61.064 C 169.574 60.947,169.306 60.851,168.977 60.851 C 168.648 60.851,168.193 60.710,167.966 60.539 C 167.739 60.367,167.206 60.223,166.781 60.220 C 166.357 60.216,165.890 60.069,165.745 59.894 C 165.593 59.710,165.129 59.574,164.655 59.574 C 164.201 59.574,163.830 59.491,163.830 59.389 C 163.830 59.287,163.355 59.141,162.775 59.064 C 162.194 58.987,161.662 58.831,161.592 58.717 C 161.522 58.604,161.051 58.511,160.545 58.511 C 159.988 58.511,159.522 58.385,159.362 58.191 C 159.204 58.001,158.739 57.872,158.208 57.872 C 157.719 57.872,157.221 57.774,157.101 57.654 C 156.981 57.534,156.387 57.377,155.782 57.305 C 155.176 57.233,154.681 57.092,154.681 56.992 C 154.681 56.891,154.178 56.805,153.564 56.802 C 152.921 56.798,152.272 56.662,152.034 56.483 C 151.789 56.297,151.139 56.167,150.438 56.163 C 149.737 56.159,149.087 56.029,148.842 55.844 C 148.601 55.662,147.965 55.532,147.312 55.532 C 146.698 55.532,146.136 55.436,146.064 55.319 C 145.992 55.202,145.292 55.103,144.509 55.099 C 143.678 55.094,142.864 54.965,142.553 54.787 C 142.241 54.609,141.406 54.477,140.532 54.468 C 139.658 54.459,138.823 54.327,138.511 54.149 C 138.167 53.953,137.334 53.842,136.160 53.837 C 135.159 53.833,134.249 53.744,134.138 53.640 C 134.027 53.535,132.835 53.409,131.489 53.360 C 130.144 53.310,128.833 53.156,128.578 53.018 C 128.278 52.855,126.956 52.765,124.854 52.764 C 122.584 52.762,121.279 52.665,120.551 52.445 C 119.007 51.976,94.086 51.978,92.340 52.447 C 91.537 52.662,90.082 52.762,87.699 52.763 C 85.593 52.765,84.056 52.858,83.792 52.999 C 83.391 53.213,81.716 53.360,74.851 53.783 C 73.336 53.876,72.257 54.040,72.096 54.202 C 71.923 54.374,71.152 54.471,69.904 54.476 C 68.638 54.481,67.797 54.587,67.447 54.787 C 67.117 54.976,66.294 55.094,65.279 55.099 C 64.379 55.103,63.583 55.202,63.511 55.319 C 63.438 55.436,62.759 55.532,62.002 55.532 C 61.244 55.532,60.281 55.676,59.861 55.851 C 59.441 56.027,58.505 56.170,57.783 56.170 C 57.015 56.170,56.358 56.281,56.202 56.436 C 56.056 56.582,55.247 56.768,54.404 56.849 C 51.895 57.089,49.936 57.426,49.706 57.656 C 49.587 57.775,48.898 57.872,48.175 57.872 C 47.266 57.872,46.779 57.971,46.596 58.191 C 46.417 58.407,45.937 58.511,45.123 58.511 C 44.458 58.511,43.814 58.612,43.690 58.736 C 43.566 58.859,42.922 59.017,42.258 59.085 C 41.594 59.154,41.001 59.292,40.939 59.392 C 40.877 59.492,40.371 59.574,39.815 59.574 C 39.256 59.574,38.620 59.714,38.392 59.887 C 38.164 60.059,37.501 60.205,36.915 60.213 C 36.329 60.220,35.666 60.367,35.438 60.539 C 35.211 60.710,34.612 60.851,34.108 60.851 C 33.604 60.851,33.191 60.947,33.191 61.064 C 33.191 61.181,32.724 61.277,32.154 61.277 C 31.491 61.277,31.020 61.392,30.851 61.596 C 30.687 61.793,30.210 61.917,29.602 61.922 C 29.060 61.925,28.431 62.069,28.204 62.241 C 27.977 62.413,27.432 62.553,26.993 62.553 C 26.554 62.553,26.136 62.649,26.064 62.766 C 25.992 62.883,25.573 62.979,25.134 62.979 C 24.696 62.979,24.151 63.119,23.924 63.291 C 23.696 63.463,23.176 63.610,22.766 63.617 C 22.356 63.624,21.835 63.771,21.608 63.943 C 21.381 64.115,20.836 64.255,20.397 64.255 C 19.959 64.255,19.540 64.351,19.468 64.468 C 19.396 64.585,19.025 64.681,18.645 64.681 C 18.265 64.681,17.768 64.821,17.541 64.993 C 17.314 65.165,16.780 65.309,16.356 65.312 C 15.931 65.316,15.465 65.463,15.319 65.638 C 15.168 65.820,14.704 65.957,14.242 65.957 C 13.795 65.957,13.370 66.053,13.298 66.170 C 13.226 66.287,12.903 66.383,12.581 66.383 C 12.260 66.383,11.810 66.524,11.583 66.695 C 11.356 66.867,10.823 67.011,10.398 67.015 C 9.974 67.018,9.507 67.165,9.362 67.340 C 9.216 67.516,8.832 67.660,8.509 67.660 C 8.186 67.660,7.647 67.803,7.312 67.977 C 6.976 68.152,6.492 68.296,6.236 68.297 C 5.980 68.297,5.711 68.394,5.638 68.511 C 5.566 68.628,5.189 68.723,4.801 68.723 C 4.412 68.723,3.975 68.867,3.830 69.043 C 3.684 69.218,3.265 69.365,2.899 69.368 C 2.533 69.372,2.048 69.516,1.821 69.688 C 1.594 69.859,1.141 70.000,0.814 70.000 C -0.061 70.000,-0.014 65.654,0.048 141.596 L 0.106 212.234 0.735 212.306 C 1.081 212.345,1.557 212.512,1.793 212.678 C 2.029 212.843,2.464 212.982,2.760 212.985 C 3.056 212.989,3.484 213.133,3.711 213.305 C 3.938 213.476,4.387 213.617,4.709 213.617 C 5.031 213.617,5.353 213.713,5.426 213.830 C 5.498 213.947,5.820 214.043,6.142 214.043 C 6.464 214.043,6.913 214.183,7.140 214.355 C 7.367 214.527,7.840 214.673,8.191 214.681 C 8.543 214.688,9.016 214.835,9.243 215.007 C 9.470 215.179,9.967 215.319,10.347 215.319 C 10.728 215.319,11.098 215.415,11.170 215.532 C 11.243 215.649,11.511 215.745,11.768 215.746 C 12.024 215.747,12.508 215.890,12.843 216.065 C 13.179 216.240,13.753 216.386,14.120 216.390 C 14.487 216.393,14.973 216.537,15.200 216.709 C 15.427 216.881,15.924 217.021,16.305 217.021 C 16.685 217.021,17.052 217.111,17.120 217.222 C 17.188 217.332,17.674 217.487,18.199 217.565 C 18.724 217.644,19.207 217.793,19.270 217.897 C 19.334 218.000,19.740 218.088,20.172 218.092 C 20.604 218.096,21.143 218.239,21.370 218.411 C 21.598 218.583,22.142 218.723,22.581 218.723 C 23.020 218.723,23.437 218.816,23.507 218.930 C 23.577 219.044,24.111 219.200,24.694 219.277 C 25.277 219.355,25.806 219.501,25.868 219.603 C 25.931 219.704,26.336 219.791,26.768 219.795 C 27.200 219.799,27.793 219.939,28.085 220.106 C 28.378 220.274,28.957 220.414,29.372 220.418 C 29.788 220.422,30.230 220.528,30.355 220.653 C 30.480 220.778,31.145 220.973,31.834 221.087 C 34.664 221.554,35.020 221.631,35.465 221.874 C 35.720 222.013,36.277 222.128,36.702 222.128 C 37.127 222.128,37.672 222.233,37.914 222.362 C 38.331 222.586,38.758 222.674,41.873 223.183 C 42.611 223.303,43.394 223.498,43.614 223.616 C 43.834 223.733,44.410 223.830,44.894 223.830 C 45.377 223.830,45.982 223.946,46.237 224.088 C 46.493 224.230,47.277 224.416,47.979 224.501 C 50.252 224.778,52.201 225.130,52.580 225.333 C 52.784 225.443,53.442 225.532,54.043 225.532 C 54.643 225.532,55.343 225.645,55.599 225.782 C 55.855 225.920,56.734 226.107,57.553 226.198 C 58.372 226.289,59.952 226.513,61.064 226.696 C 62.176 226.878,63.954 227.110,65.016 227.210 C 66.077 227.310,67.148 227.500,67.395 227.632 C 67.642 227.764,68.575 227.872,69.468 227.872 C 70.361 227.872,71.283 227.975,71.517 228.100 C 71.942 228.327,74.753 228.603,79.801 228.912 C 81.271 229.002,82.611 229.160,82.778 229.263 C 82.945 229.366,84.853 229.524,87.019 229.614 C 89.185 229.705,91.532 229.868,92.234 229.978 C 94.013 230.255,118.655 230.256,120.532 229.979 C 121.351 229.858,123.601 229.690,125.532 229.607 C 127.463 229.524,129.175 229.373,129.337 229.272 C 129.498 229.172,130.695 229.014,131.996 228.921 C 135.725 228.657,138.629 228.323,139.247 228.088 C 139.559 227.970,140.338 227.872,140.978 227.872 C 141.618 227.872,142.485 227.729,142.905 227.553 C 143.325 227.378,144.216 227.234,144.884 227.234 C 145.552 227.234,146.171 227.162,146.258 227.074 C 146.437 226.894,148.818 226.438,150.768 226.211 C 151.483 226.127,152.201 225.950,152.364 225.817 C 152.526 225.684,153.138 225.526,153.723 225.465 C 154.309 225.404,155.410 225.195,156.170 225.001 C 156.931 224.807,157.936 224.577,158.404 224.491 C 158.872 224.404,159.464 224.220,159.720 224.082 C 159.976 223.943,160.502 223.826,160.890 223.822 C 161.278 223.818,161.835 223.678,162.128 223.511 C 162.420 223.343,162.917 223.203,163.232 223.199 C 163.547 223.195,163.864 223.096,163.936 222.979 C 164.008 222.862,164.376 222.766,164.752 222.766 C 165.129 222.766,165.626 222.635,165.857 222.475 C 166.088 222.314,166.612 222.135,167.021 222.076 C 167.760 221.969,168.915 221.602,169.625 221.248 C 169.828 221.147,170.217 221.064,170.488 221.064 C 170.760 221.064,171.168 220.923,171.396 220.751 C 171.623 220.580,172.108 220.436,172.474 220.432 C 172.840 220.429,173.259 220.282,173.404 220.106 C 173.550 219.931,173.939 219.787,174.269 219.787 C 174.599 219.787,174.921 219.702,174.985 219.599 C 175.049 219.495,175.438 219.347,175.849 219.270 C 176.260 219.193,176.596 219.038,176.596 218.927 C 176.596 218.815,176.871 218.723,177.208 218.723 C 177.545 218.723,177.939 218.580,178.085 218.404 C 178.231 218.229,178.572 218.085,178.843 218.085 C 179.115 218.085,179.389 218.000,179.453 217.896 C 179.517 217.793,179.906 217.645,180.317 217.568 C 180.728 217.491,181.064 217.336,181.064 217.224 C 181.064 217.113,181.248 217.021,181.472 217.021 C 181.697 217.021,182.151 216.884,182.483 216.715 C 182.814 216.547,183.468 216.253,183.936 216.062 C 184.404 215.872,184.979 215.633,185.213 215.531 C 185.447 215.429,185.854 215.286,186.117 215.212 C 186.380 215.138,186.596 214.988,186.596 214.879 C 186.596 214.770,186.823 214.681,187.102 214.681 C 187.380 214.681,187.727 214.537,187.872 214.362 C 188.018 214.186,188.264 214.043,188.419 214.043 C 188.574 214.043,189.151 213.803,189.701 213.511 C 190.251 213.218,190.819 212.979,190.963 212.979 C 191.107 212.979,191.344 212.835,191.489 212.660 C 191.635 212.484,191.934 212.340,192.154 212.340 C 192.373 212.340,192.553 212.252,192.553 212.145 C 192.553 212.037,192.840 211.886,193.191 211.809 C 193.543 211.731,193.830 211.580,193.830 211.472 C 193.830 211.365,193.966 211.277,194.132 211.277 C 194.298 211.277,194.705 211.142,195.036 210.977 C 195.367 210.812,195.926 210.563,196.277 210.423 C 196.628 210.283,197.202 210.042,197.553 209.889 C 197.904 209.736,198.455 209.552,198.777 209.482 C 199.098 209.411,199.362 209.260,199.362 209.145 C 199.362 209.030,199.649 208.936,200.000 208.936 C 200.351 208.936,200.638 208.845,200.638 208.733 C 200.638 208.621,200.974 208.467,201.385 208.390 C 201.796 208.313,202.185 208.165,202.249 208.061 C 202.313 207.957,202.581 207.872,202.844 207.872 C 203.108 207.872,203.509 207.732,203.736 207.560 C 203.963 207.388,204.388 207.241,204.681 207.234 C 204.973 207.227,205.399 207.080,205.626 206.908 C 205.853 206.736,206.254 206.596,206.517 206.596 C 206.781 206.596,207.055 206.500,207.128 206.383 C 207.200 206.266,207.517 206.167,207.832 206.163 C 208.147 206.160,208.590 206.016,208.817 205.844 C 209.044 205.672,209.440 205.532,209.697 205.532 C 209.954 205.532,210.438 205.389,210.774 205.214 C 211.109 205.039,211.593 204.896,211.849 204.895 C 212.106 204.894,212.374 204.798,212.447 204.681 C 212.519 204.564,212.842 204.468,213.163 204.468 C 213.485 204.468,213.934 204.328,214.161 204.156 C 214.389 203.984,214.867 203.840,215.225 203.837 C 215.583 203.833,216.062 203.689,216.289 203.517 C 216.516 203.346,217.008 203.202,217.381 203.198 C 217.754 203.195,218.119 203.096,218.191 202.979 C 218.264 202.862,218.581 202.765,218.896 202.765 C 219.210 202.764,219.742 202.620,220.078 202.445 C 220.413 202.271,220.987 202.125,221.354 202.121 C 221.721 202.117,222.207 201.974,222.434 201.802 C 222.661 201.630,223.206 201.489,223.645 201.489 C 224.084 201.489,224.502 201.394,224.574 201.277 C 224.647 201.160,225.011 201.063,225.385 201.063 C 225.758 201.062,226.338 200.918,226.673 200.743 C 227.008 200.569,227.631 200.422,228.056 200.418 C 228.482 200.414,229.069 200.274,229.362 200.106 C 229.654 199.939,230.254 199.799,230.694 199.795 C 231.135 199.791,231.661 199.696,231.865 199.584 C 232.258 199.368,234.033 199.008,235.957 198.753 C 236.601 198.668,237.337 198.483,237.592 198.342 C 237.848 198.201,238.501 198.085,239.043 198.085 C 239.585 198.085,240.201 197.992,240.413 197.879 C 240.807 197.668,242.771 197.343,245.426 197.049 C 246.245 196.958,247.124 196.771,247.380 196.633 C 247.635 196.496,248.479 196.383,249.255 196.383 C 250.031 196.383,250.849 196.285,251.072 196.166 C 251.503 195.935,254.414 195.613,258.617 195.330 C 260.021 195.236,261.440 195.051,261.769 194.920 C 262.108 194.785,263.612 194.681,265.227 194.681 C 266.990 194.681,268.085 194.599,268.085 194.468 C 268.085 194.329,271.986 194.255,279.362 194.255 C 286.738 194.255,290.638 194.329,290.638 194.468 C 290.638 194.599,291.698 194.681,293.390 194.681 C 294.904 194.681,296.412 194.785,296.741 194.913 C 297.071 195.040,298.441 195.228,299.787 195.331 C 303.902 195.645,306.378 195.940,306.802 196.167 C 307.024 196.286,307.728 196.383,308.366 196.383 C 309.004 196.383,309.800 196.526,310.135 196.701 C 310.470 196.876,311.249 197.019,311.865 197.020 C 312.481 197.021,313.151 197.112,313.354 197.224 C 313.557 197.335,314.272 197.485,314.943 197.558 C 315.614 197.630,316.219 197.778,316.286 197.887 C 316.353 197.996,316.809 198.088,317.300 198.093 C 317.790 198.097,318.431 198.237,318.723 198.404 C 319.016 198.571,319.657 198.712,320.147 198.716 C 320.637 198.720,321.090 198.807,321.153 198.908 C 321.216 199.010,321.744 199.156,322.327 199.233 C 322.910 199.311,323.444 199.467,323.514 199.581 C 323.585 199.694,324.001 199.787,324.440 199.787 C 324.879 199.787,325.424 199.928,325.651 200.100 C 325.878 200.271,326.423 200.415,326.862 200.419 C 327.301 200.422,327.660 200.517,327.660 200.629 C 327.660 200.740,328.019 200.889,328.457 200.959 C 328.896 201.030,329.422 201.178,329.625 201.288 C 329.828 201.399,330.217 201.489,330.488 201.489 C 330.760 201.489,331.168 201.630,331.396 201.802 C 331.623 201.974,332.096 202.120,332.447 202.128 C 332.798 202.135,333.271 202.282,333.498 202.454 C 333.725 202.625,334.127 202.766,334.390 202.766 C 334.653 202.766,334.928 202.862,335.000 202.979 C 335.072 203.096,335.347 203.191,335.610 203.191 C 335.873 203.191,336.275 203.332,336.502 203.504 C 336.729 203.676,337.166 203.819,337.474 203.823 C 337.781 203.827,338.152 203.973,338.298 204.149 C 338.444 204.324,338.785 204.468,339.056 204.468 C 339.327 204.468,339.609 204.564,339.681 204.681 C 339.753 204.798,340.028 204.894,340.291 204.894 C 340.554 204.894,340.956 205.034,341.183 205.206 C 341.410 205.378,341.811 205.521,342.074 205.525 C 342.338 205.529,342.553 205.621,342.553 205.730 C 342.553 205.839,342.769 205.989,343.032 206.063 C 343.612 206.225,344.369 206.533,345.177 206.935 C 345.508 207.099,345.951 207.234,346.161 207.234 C 346.372 207.234,346.663 207.378,346.809 207.553 C 346.954 207.729,347.247 207.872,347.460 207.872 C 347.673 207.872,347.902 207.961,347.969 208.069 C 348.035 208.177,348.376 208.328,348.726 208.405 C 349.076 208.482,349.362 208.633,349.362 208.740 C 349.362 208.848,349.560 208.936,349.802 208.936 C 350.045 208.936,350.387 209.080,350.562 209.255 C 350.738 209.431,351.066 209.574,351.292 209.574 C 351.517 209.574,351.702 209.652,351.702 209.746 C 351.702 209.928,353.179 210.638,353.556 210.638 C 353.678 210.638,353.897 210.782,354.043 210.957 C 354.188 211.133,354.487 211.277,354.707 211.277 C 354.927 211.277,355.106 211.354,355.106 211.448 C 355.106 211.543,355.513 211.788,356.011 211.993 C 356.508 212.198,357.059 212.456,357.234 212.567 C 357.410 212.678,357.697 212.823,357.872 212.889 C 358.048 212.955,358.335 213.101,358.511 213.213 C 358.686 213.325,358.997 213.473,359.202 213.542 C 359.407 213.610,359.574 213.751,359.574 213.855 C 359.574 213.958,359.711 214.043,359.878 214.043 C 360.046 214.043,360.313 214.162,360.473 214.309 C 360.813 214.620,361.463 215.048,361.915 215.257 C 362.090 215.338,362.330 215.484,362.447 215.581 C 362.564 215.678,363.497 216.344,364.521 217.061 C 365.545 217.778,366.383 218.445,366.383 218.544 C 366.383 218.643,366.479 218.723,366.596 218.723 C 366.713 218.723,366.985 218.891,367.202 219.096 C 367.418 219.301,368.101 219.898,368.720 220.423 C 370.408 221.856,373.989 225.454,375.622 227.358 C 377.979 230.108,378.711 231.000,379.043 231.526 C 379.160 231.712,379.854 232.636,380.585 233.579 C 381.316 234.522,381.915 235.359,381.915 235.438 C 381.915 235.517,382.234 236.025,382.624 236.567 C 383.015 237.110,383.709 238.162,384.167 238.906 C 384.625 239.650,385.164 240.512,385.365 240.821 C 385.566 241.130,385.926 241.766,386.167 242.234 C 386.407 242.702,386.721 243.273,386.865 243.503 C 387.718 244.859,388.085 245.558,388.085 245.821 C 388.085 245.984,388.229 246.237,388.404 246.383 C 388.580 246.529,388.723 246.828,388.723 247.047 C 388.723 247.267,388.801 247.447,388.895 247.447 C 389.077 247.447,389.787 248.923,389.787 249.301 C 389.787 249.423,389.931 249.642,390.106 249.787 C 390.282 249.933,390.426 250.220,390.426 250.426 C 390.426 250.631,390.569 250.918,390.745 251.064 C 390.920 251.210,391.064 251.483,391.064 251.672 C 391.064 251.981,391.683 253.412,392.472 254.926 C 392.634 255.237,392.766 255.630,392.766 255.799 C 392.766 255.968,393.005 256.557,393.298 257.107 C 393.590 257.657,393.830 258.330,393.830 258.602 C 393.830 258.874,393.973 259.216,394.149 259.362 C 394.324 259.507,394.468 259.803,394.468 260.019 C 394.468 260.374,394.856 261.424,395.345 262.391 C 395.448 262.594,395.535 262.977,395.539 263.242 C 395.542 263.507,395.686 263.909,395.858 264.136 C 396.030 264.364,396.173 264.794,396.177 265.094 C 396.181 265.393,396.324 265.824,396.496 266.051 C 396.668 266.278,396.809 266.728,396.809 267.049 C 396.809 267.371,396.904 267.694,397.021 267.766 C 397.138 267.838,397.235 268.155,397.235 268.470 C 397.236 268.785,397.380 269.317,397.555 269.652 C 397.729 269.987,397.876 270.514,397.880 270.822 C 397.884 271.131,398.024 271.622,398.191 271.915 C 398.359 272.207,398.499 272.752,398.503 273.126 C 398.507 273.499,398.594 273.856,398.695 273.919 C 398.797 273.982,398.943 274.510,399.021 275.093 C 399.098 275.676,399.254 276.210,399.368 276.280 C 399.481 276.351,399.574 276.785,399.574 277.247 C 399.574 277.708,399.670 278.085,399.787 278.085 C 399.929 278.085,400.000 232.305,400.000 141.170 C 400.000 50.035,399.929 4.255,399.787 4.255 C 399.670 4.255,399.574 4.627,399.574 5.082 " stroke="none" fill="#1c2c43" fill-rule="evenodd"></path><path id="path1" d="M399.443 3.924 C 399.379 4.092,399.371 4.404,399.425 4.615 C 399.493 4.875,399.533 4.815,399.550 4.433 C 399.563 4.121,399.694 3.817,399.840 3.758 C 400.049 3.674,400.047 3.647,399.834 3.634 C 399.684 3.625,399.508 3.755,399.443 3.924 M398.948 6.141 C 398.807 6.483,398.732 7.036,398.782 7.371 C 398.869 7.954,398.874 7.950,398.904 7.273 C 398.922 6.885,399.040 6.374,399.166 6.138 C 399.293 5.902,399.353 5.665,399.301 5.613 C 399.249 5.561,399.090 5.798,398.948 6.141 M398.040 9.899 C 397.974 10.130,397.856 10.511,397.777 10.745 C 397.697 10.979,397.788 10.901,397.979 10.572 C 398.169 10.244,398.288 9.863,398.242 9.727 C 398.197 9.591,398.106 9.668,398.040 9.899 M396.990 13.511 C 396.923 13.862,396.801 14.340,396.719 14.574 C 396.636 14.809,396.724 14.731,396.915 14.403 C 397.105 14.074,397.227 13.595,397.186 13.339 C 397.124 12.950,397.091 12.979,396.990 13.511 M396.408 15.679 C 396.394 15.935,396.287 16.204,396.170 16.277 C 396.053 16.349,395.957 16.519,395.957 16.656 C 395.957 16.792,396.108 16.689,396.291 16.426 C 396.475 16.164,396.582 15.784,396.529 15.581 C 396.456 15.302,396.426 15.325,396.408 15.679 M395.566 17.988 C 395.430 18.286,395.323 18.694,395.328 18.893 C 395.334 19.092,395.473 18.876,395.638 18.412 C 395.981 17.449,395.936 17.178,395.566 17.988 M394.636 20.750 C 394.570 20.981,394.452 21.362,394.372 21.596 C 394.293 21.830,394.384 21.752,394.574 21.423 C 394.765 21.095,394.883 20.714,394.838 20.578 C 394.793 20.442,394.702 20.519,394.636 20.750 M392.934 25.218 C 392.868 25.449,392.749 25.830,392.670 26.064 C 392.591 26.298,392.682 26.220,392.872 25.891 C 393.063 25.563,393.181 25.182,393.136 25.046 C 393.090 24.910,393.000 24.987,392.934 25.218 M392.181 27.177 C 391.802 27.985,391.853 28.315,392.241 27.571 C 392.419 27.229,392.538 26.873,392.506 26.780 C 392.473 26.686,392.327 26.865,392.181 27.177 M391.117 29.628 C 390.888 30.253,390.894 30.280,391.177 29.906 C 391.447 29.549,391.607 28.936,391.430 28.936 C 391.397 28.936,391.256 29.247,391.117 29.628 M386.450 38.989 C 386.040 39.627,385.778 40.217,385.953 40.109 C 386.058 40.044,386.286 39.706,386.460 39.357 C 386.777 38.722,386.771 38.491,386.450 38.989 M385.405 40.808 C 385.286 41.007,384.970 41.529,384.704 41.968 C 384.438 42.407,384.268 42.766,384.326 42.766 C 384.472 42.766,385.787 40.609,385.696 40.518 C 385.655 40.478,385.525 40.608,385.405 40.808 M382.864 44.947 C 382.536 45.444,382.404 45.739,382.570 45.601 C 382.890 45.337,383.704 44.043,383.551 44.043 C 383.501 44.043,383.192 44.449,382.864 44.947 M381.773 46.543 C 381.573 46.864,381.307 47.266,381.183 47.434 C 381.019 47.658,381.024 47.701,381.202 47.595 C 381.461 47.440,382.393 45.957,382.232 45.957 C 382.180 45.957,381.973 46.221,381.773 46.543 M380.426 48.511 C 380.176 48.862,380.019 49.149,380.077 49.149 C 380.136 49.149,380.388 48.862,380.638 48.511 C 380.888 48.160,381.045 47.872,380.986 47.872 C 380.928 47.872,380.676 48.160,380.426 48.511 M379.224 50.160 C 378.902 50.598,378.490 51.141,378.309 51.366 C 378.127 51.591,378.090 51.711,378.225 51.632 C 378.495 51.475,380.058 49.362,379.904 49.362 C 379.852 49.362,379.546 49.721,379.224 50.160 M106.332 51.853 C 106.597 51.904,106.980 51.902,107.183 51.848 C 107.387 51.795,107.170 51.753,106.702 51.756 C 106.234 51.758,106.068 51.802,106.332 51.853 M94.320 52.074 C 95.467 52.112,97.286 52.112,98.362 52.073 C 99.438 52.035,98.500 52.003,96.277 52.004 C 94.053 52.004,93.173 52.035,94.320 52.074 M114.628 52.073 C 115.710 52.112,117.481 52.112,118.564 52.073 C 119.646 52.035,118.761 52.003,116.596 52.003 C 114.431 52.003,113.545 52.035,114.628 52.073 M89.043 52.340 L 87.553 52.478 88.830 52.500 C 89.532 52.512,90.537 52.445,91.064 52.351 C 92.280 52.135,91.322 52.130,89.043 52.340 M121.809 52.350 C 122.394 52.441,123.303 52.511,123.830 52.505 L 124.787 52.493 123.617 52.332 C 122.973 52.243,122.064 52.173,121.596 52.177 C 120.774 52.184,120.781 52.190,121.809 52.350 M82.181 52.913 C 82.386 52.966,82.721 52.966,82.926 52.913 C 83.130 52.859,82.963 52.815,82.553 52.815 C 82.144 52.815,81.976 52.859,82.181 52.913 M79.415 53.134 C 79.854 53.180,80.572 53.180,81.011 53.134 C 81.449 53.088,81.090 53.050,80.213 53.050 C 79.335 53.050,78.976 53.088,79.415 53.134 M130.798 53.133 C 131.178 53.180,131.801 53.180,132.181 53.133 C 132.561 53.085,132.250 53.047,131.489 53.047 C 130.729 53.047,130.418 53.085,130.798 53.133 M134.362 53.404 C 134.596 53.505,134.979 53.587,135.213 53.587 L 135.638 53.587 135.213 53.404 C 134.979 53.304,134.596 53.221,134.362 53.221 L 133.936 53.221 134.362 53.404 M72.921 53.771 C 73.298 53.818,73.969 53.818,74.410 53.772 C 74.852 53.726,74.543 53.688,73.723 53.687 C 72.904 53.686,72.543 53.724,72.921 53.771 M136.543 53.771 C 136.923 53.818,137.545 53.818,137.926 53.771 C 138.306 53.724,137.995 53.685,137.234 53.685 C 136.473 53.685,136.162 53.724,136.543 53.771 M70.745 54.043 C 70.165 54.190,70.156 54.206,70.638 54.215 C 70.931 54.221,71.362 54.143,71.596 54.043 C 72.120 53.817,71.631 53.817,70.745 54.043 M139.043 54.033 C 139.451 54.218,140.591 54.338,140.408 54.177 C 140.359 54.134,139.936 54.041,139.468 53.969 C 138.875 53.879,138.746 53.898,139.043 54.033 M67.408 54.365 C 67.347 54.426,66.733 54.558,66.042 54.659 C 65.147 54.789,65.000 54.848,65.532 54.864 C 65.941 54.876,66.755 54.752,67.340 54.589 C 67.926 54.427,68.205 54.285,67.961 54.274 C 67.717 54.264,67.468 54.305,67.408 54.365 M143.085 54.675 C 143.491 54.855,144.848 54.977,144.663 54.817 C 144.614 54.775,144.144 54.683,143.617 54.613 C 142.978 54.529,142.801 54.549,143.085 54.675 M374.894 55.426 C 374.377 55.952,374.002 56.383,374.060 56.383 C 374.119 56.383,374.590 55.952,375.106 55.426 C 375.623 54.899,375.998 54.468,375.940 54.468 C 375.881 54.468,375.410 54.899,374.894 55.426 M146.383 55.195 C 146.793 55.362,147.559 55.493,148.085 55.486 L 149.043 55.472 147.979 55.324 C 147.394 55.243,146.628 55.112,146.277 55.033 C 145.702 54.904,145.713 54.920,146.383 55.195 M60.957 55.319 L 59.681 55.460 60.851 55.475 C 61.495 55.483,62.261 55.413,62.553 55.319 C 63.199 55.112,62.826 55.112,60.957 55.319 M58.617 55.745 L 58.191 55.928 58.617 55.939 C 58.851 55.946,59.186 55.858,59.362 55.745 C 59.785 55.471,59.253 55.471,58.617 55.745 M152.021 56.265 C 152.489 56.443,153.064 56.581,153.298 56.571 C 153.539 56.560,153.402 56.464,152.979 56.349 C 151.610 55.976,151.161 55.937,152.021 56.265 M54.787 56.383 C 54.208 56.530,54.198 56.546,54.681 56.556 C 54.973 56.561,55.404 56.484,55.638 56.383 C 56.163 56.158,55.673 56.158,54.787 56.383 M50.372 57.171 C 50.636 57.222,51.066 57.222,51.330 57.171 C 51.593 57.121,51.378 57.079,50.851 57.079 C 50.324 57.079,50.109 57.121,50.372 57.171 M155.907 57.172 C 156.171 57.223,156.554 57.221,156.758 57.167 C 156.961 57.114,156.745 57.073,156.277 57.075 C 155.809 57.077,155.642 57.121,155.907 57.172 M48.830 57.447 C 48.562 57.562,48.522 57.630,48.723 57.630 C 48.899 57.630,49.234 57.547,49.468 57.447 C 49.736 57.332,49.776 57.264,49.574 57.264 C 49.399 57.264,49.064 57.346,48.830 57.447 M46.862 57.806 C 47.066 57.860,47.402 57.860,47.606 57.806 C 47.811 57.753,47.644 57.709,47.234 57.709 C 46.824 57.709,46.657 57.753,46.862 57.806 M159.787 58.075 C 159.963 58.194,160.290 58.293,160.514 58.295 C 161.059 58.299,160.889 58.177,160.106 58.002 C 159.640 57.898,159.554 57.918,159.787 58.075 M161.915 58.595 C 162.207 58.774,162.734 58.913,163.085 58.904 C 163.712 58.888,163.711 58.884,162.979 58.728 C 162.569 58.640,162.043 58.501,161.809 58.418 C 161.530 58.320,161.566 58.381,161.915 58.595 M42.021 58.720 C 41.436 58.802,40.718 58.982,40.426 59.121 L 39.894 59.374 40.426 59.240 C 40.718 59.166,41.457 59.039,42.067 58.957 C 42.677 58.876,43.244 58.742,43.326 58.660 C 43.408 58.578,43.387 58.524,43.280 58.541 C 43.173 58.557,42.606 58.638,42.021 58.720 M163.959 59.151 C 164.084 59.275,164.560 59.419,165.018 59.469 C 165.476 59.520,165.660 59.511,165.426 59.449 C 165.191 59.387,164.715 59.244,164.367 59.131 C 163.919 58.985,163.800 58.991,163.959 59.151 M38.085 59.572 C 37.868 59.710,38.037 59.734,38.617 59.645 C 39.669 59.483,39.848 59.361,39.025 59.365 C 38.684 59.367,38.261 59.460,38.085 59.572 M35.482 60.121 C 35.415 60.188,34.897 60.320,34.329 60.415 L 33.298 60.588 34.149 60.606 C 34.617 60.615,35.239 60.486,35.532 60.319 C 35.824 60.152,35.960 60.012,35.833 60.008 C 35.707 60.003,35.548 60.054,35.482 60.121 M167.872 60.319 C 168.165 60.486,168.596 60.622,168.830 60.621 C 169.064 60.620,168.872 60.482,168.404 60.313 C 167.338 59.929,167.193 59.931,167.872 60.319 M368.927 61.436 L 367.979 62.447 369.039 61.489 C 369.622 60.963,370.140 60.508,370.191 60.479 C 370.242 60.449,370.192 60.426,370.080 60.426 C 369.968 60.426,369.449 60.880,368.927 61.436 M30.213 61.405 C 29.868 61.616,29.831 61.678,30.106 61.580 C 30.340 61.496,30.915 61.358,31.383 61.272 L 32.234 61.117 31.489 61.098 C 31.080 61.087,30.505 61.226,30.213 61.405 M28.223 61.848 C 28.143 61.928,27.672 62.060,27.177 62.140 C 26.403 62.267,26.370 62.291,26.944 62.314 C 27.311 62.328,27.933 62.201,28.327 62.030 C 28.720 61.859,28.891 61.715,28.706 61.710 C 28.520 61.706,28.303 61.768,28.223 61.848 M173.191 62.021 C 173.484 62.189,173.915 62.325,174.149 62.324 C 174.383 62.323,174.191 62.184,173.723 62.015 C 172.657 61.631,172.512 61.633,173.191 62.021 M23.404 63.107 C 23.056 63.321,23.019 63.382,23.298 63.284 C 23.532 63.201,24.059 63.062,24.468 62.974 C 25.200 62.818,25.202 62.815,24.574 62.798 C 24.223 62.789,23.697 62.928,23.404 63.107 M20.851 63.737 C 20.441 63.892,20.263 64.024,20.454 64.031 C 20.646 64.037,21.124 63.903,21.518 63.732 C 22.404 63.347,21.870 63.351,20.851 63.737 M177.991 63.717 C 178.218 63.888,178.548 64.031,178.723 64.034 C 178.899 64.037,178.768 63.897,178.433 63.722 C 177.657 63.317,177.460 63.315,177.991 63.717 M16.915 64.815 C 16.386 65.074,16.367 65.104,16.809 64.992 C 17.101 64.917,17.676 64.780,18.085 64.687 C 18.815 64.520,18.817 64.517,18.191 64.510 C 17.840 64.506,17.266 64.643,16.915 64.815 M364.149 65.231 L 363.511 65.780 364.202 65.322 C 364.582 65.071,364.894 64.823,364.894 64.773 C 364.894 64.613,364.804 64.669,364.149 65.231 M14.787 65.433 C 13.928 65.827,14.442 65.827,15.348 65.434 C 15.742 65.263,15.920 65.127,15.745 65.132 C 15.569 65.137,15.138 65.272,14.787 65.433 M182.205 65.427 C 182.981 65.832,183.178 65.834,182.647 65.432 C 182.420 65.260,182.090 65.117,181.915 65.114 C 181.739 65.111,181.870 65.252,182.205 65.427 M183.823 65.993 C 183.936 66.130,184.391 66.364,184.834 66.514 C 185.546 66.755,185.591 66.751,185.225 66.478 C 184.998 66.309,184.658 66.170,184.470 66.170 C 184.282 66.170,184.013 66.074,183.872 65.957 C 183.689 65.805,183.675 65.815,183.823 65.993 M362.660 66.295 L 362.021 66.844 362.713 66.386 C 363.093 66.134,363.404 65.887,363.404 65.837 C 363.404 65.677,363.314 65.733,362.660 66.295 M8.830 67.135 C 7.986 67.522,8.394 67.521,9.468 67.134 C 9.936 66.965,10.128 66.831,9.894 66.835 C 9.660 66.839,9.181 66.975,8.830 67.135 M186.248 67.129 C 187.024 67.534,187.221 67.536,186.690 67.134 C 186.462 66.963,186.133 66.820,185.957 66.817 C 185.782 66.814,185.913 66.954,186.248 67.129 M7.387 67.578 C 7.315 67.650,6.940 67.784,6.553 67.875 C 5.943 68.020,5.922 68.044,6.396 68.063 C 6.695 68.075,7.126 67.945,7.353 67.773 C 7.580 67.601,7.710 67.457,7.642 67.454 C 7.574 67.450,7.459 67.506,7.387 67.578 M187.772 67.722 C 188.318 68.081,189.362 68.529,189.362 68.405 C 189.362 68.304,187.665 67.447,187.466 67.447 C 187.403 67.447,187.541 67.571,187.772 67.722 M358.830 68.611 C 358.362 68.900,358.045 69.139,358.126 69.142 C 358.311 69.151,359.787 68.287,359.787 68.170 C 359.787 68.032,359.721 68.062,358.830 68.611 M3.298 68.857 C 2.625 69.186,2.745 69.172,4.362 68.729 C 4.943 68.570,4.952 68.554,4.468 68.550 C 4.176 68.547,3.649 68.686,3.298 68.857 M1.277 69.481 C 0.803 69.661,0.687 69.765,0.957 69.768 C 1.191 69.770,1.622 69.635,1.915 69.468 C 2.565 69.097,2.278 69.103,1.277 69.481 M192.340 69.893 C 192.340 69.994,194.037 70.851,194.236 70.851 C 194.423 70.851,193.554 70.319,192.926 70.048 C 192.604 69.910,192.340 69.840,192.340 69.893 M194.800 71.163 C 195.027 71.335,195.356 71.478,195.532 71.481 C 195.707 71.484,195.577 71.344,195.242 71.169 C 194.466 70.764,194.269 70.762,194.800 71.163 M196.340 71.823 C 196.602 72.007,196.982 72.114,197.185 72.061 C 197.464 71.988,197.441 71.958,197.087 71.940 C 196.831 71.926,196.562 71.819,196.489 71.702 C 196.417 71.585,196.246 71.489,196.110 71.489 C 195.974 71.489,196.077 71.640,196.340 71.823 M352.076 71.970 C 351.638 72.214,351.315 72.450,351.359 72.494 C 351.429 72.564,352.932 71.801,353.174 71.573 C 353.412 71.349,352.785 71.576,352.076 71.970 M199.055 72.866 C 199.282 73.037,199.612 73.180,199.787 73.183 C 199.963 73.186,199.832 73.046,199.497 72.871 C 198.721 72.466,198.524 72.464,199.055 72.866 M350.213 72.872 C 349.904 73.049,349.815 73.177,350.000 73.177 C 350.176 73.178,350.505 73.037,350.732 72.866 C 351.258 72.468,350.912 72.473,350.213 72.872 M200.732 73.495 C 200.959 73.679,201.342 73.822,201.583 73.811 C 201.935 73.797,201.909 73.759,201.453 73.622 C 201.140 73.527,200.757 73.385,200.602 73.305 C 200.446 73.225,200.505 73.311,200.732 73.495 M348.830 73.518 C 348.479 73.679,348.341 73.815,348.523 73.820 C 348.706 73.825,349.041 73.689,349.268 73.517 C 349.772 73.136,349.664 73.136,348.830 73.518 M203.588 74.583 C 203.982 74.754,204.365 74.890,204.439 74.886 C 204.716 74.871,203.498 74.270,203.191 74.271 C 203.016 74.272,203.195 74.412,203.588 74.583 M346.502 74.581 C 345.971 74.983,346.168 74.980,346.944 74.576 C 347.279 74.401,347.410 74.260,347.234 74.263 C 347.059 74.266,346.729 74.409,346.502 74.581 M205.413 75.201 C 205.640 75.383,206.005 75.532,206.225 75.532 C 206.444 75.532,206.833 75.633,207.088 75.756 C 207.537 75.973,207.539 75.970,207.140 75.650 C 206.913 75.468,206.548 75.319,206.328 75.319 C 206.109 75.319,205.720 75.218,205.465 75.095 C 205.016 74.878,205.014 74.881,205.413 75.201 M342.340 76.294 C 341.621 76.693,342.133 76.678,342.901 76.278 C 343.236 76.103,343.367 75.969,343.191 75.980 C 343.016 75.990,342.633 76.132,342.340 76.294 M210.758 77.042 C 210.807 77.122,211.176 77.225,211.579 77.272 C 211.981 77.319,212.270 77.293,212.221 77.213 C 212.172 77.133,211.802 77.030,211.400 76.983 C 210.997 76.936,210.708 76.963,210.758 77.042 M339.668 77.356 C 339.441 77.540,339.383 77.626,339.538 77.546 C 339.693 77.466,340.076 77.324,340.389 77.229 C 340.845 77.092,340.871 77.054,340.519 77.040 C 340.278 77.030,339.895 77.172,339.668 77.356 M213.511 77.868 C 213.862 77.958,214.340 78.099,214.574 78.180 C 214.857 78.278,214.821 78.218,214.468 78.001 C 214.176 77.821,213.697 77.681,213.404 77.689 C 212.918 77.702,212.927 77.717,213.511 77.868 M337.991 77.985 C 337.764 78.157,337.673 78.298,337.789 78.298 C 337.905 78.298,338.091 78.211,338.202 78.106 C 338.313 78.000,338.596 77.868,338.830 77.811 L 339.255 77.709 338.830 77.691 C 338.596 77.681,338.218 77.814,337.991 77.985 M216.058 78.532 C 216.289 78.678,216.816 78.865,217.229 78.947 C 217.641 79.029,218.170 79.163,218.404 79.245 C 218.826 79.392,218.826 79.391,218.410 79.128 C 218.179 78.981,217.652 78.795,217.239 78.713 C 216.827 78.631,216.298 78.497,216.064 78.415 C 215.643 78.267,215.642 78.268,216.058 78.532 M336.489 78.511 C 336.417 78.628,336.100 78.736,335.785 78.752 C 335.350 78.774,335.317 78.802,335.649 78.868 C 335.889 78.916,336.368 78.808,336.713 78.628 C 337.102 78.425,337.204 78.300,336.981 78.299 C 336.783 78.298,336.562 78.394,336.489 78.511 M334.255 79.269 C 333.742 79.463,333.646 79.554,333.949 79.562 C 334.190 79.569,334.573 79.434,334.800 79.262 C 335.285 78.895,335.241 78.896,334.255 79.269 M219.468 79.580 C 221.009 80.002,221.162 80.020,220.454 79.693 C 220.061 79.511,219.534 79.372,219.284 79.383 C 218.941 79.400,218.986 79.448,219.468 79.580 M223.032 80.572 C 223.237 80.626,223.572 80.626,223.777 80.572 C 223.981 80.519,223.814 80.475,223.404 80.475 C 222.995 80.475,222.827 80.519,223.032 80.572 M224.681 80.935 C 224.973 81.115,225.548 81.253,225.957 81.242 L 226.702 81.223 225.851 81.068 C 225.383 80.983,224.809 80.844,224.574 80.761 C 224.299 80.662,224.337 80.724,224.681 80.935 M329.362 80.851 C 329.186 80.965,328.838 81.059,328.588 81.061 C 328.338 81.062,327.860 81.207,327.524 81.382 C 327.139 81.583,327.047 81.700,327.275 81.701 C 327.473 81.702,327.694 81.606,327.766 81.489 C 327.838 81.372,328.155 81.273,328.470 81.269 C 328.995 81.262,330.380 80.659,329.894 80.649 C 329.777 80.647,329.537 80.738,329.362 80.851 M232.021 82.629 C 232.650 82.919,234.813 83.253,234.585 83.025 C 234.520 82.960,233.965 82.837,233.351 82.750 C 232.737 82.664,232.043 82.535,231.809 82.464 C 231.574 82.392,231.670 82.467,232.021 82.629 M323.575 82.453 C 323.514 82.515,323.043 82.656,322.529 82.766 L 321.596 82.967 322.526 82.883 C 323.238 82.819,324.363 82.340,323.801 82.340 C 323.739 82.340,323.637 82.391,323.575 82.453 M318.723 83.617 C 318.548 83.730,318.165 83.836,317.872 83.851 C 317.534 83.869,317.471 83.914,317.698 83.974 C 317.895 84.026,318.470 83.923,318.975 83.746 C 319.480 83.569,319.702 83.421,319.468 83.418 C 319.234 83.414,318.899 83.504,318.723 83.617 M240.532 84.350 C 241.000 84.514,241.814 84.643,242.340 84.637 L 243.298 84.625 242.128 84.466 C 241.484 84.378,240.670 84.249,240.319 84.179 C 239.892 84.094,239.963 84.151,240.532 84.350 M316.113 84.170 C 316.043 84.241,315.476 84.373,314.854 84.463 C 313.811 84.615,313.789 84.629,314.574 84.645 C 315.309 84.659,317.101 84.107,316.472 84.060 C 316.345 84.050,316.184 84.100,316.113 84.170 M312.766 84.894 C 312.328 85.034,312.309 85.067,312.660 85.082 C 312.894 85.092,313.229 85.007,313.404 84.894 C 313.777 84.653,313.518 84.653,312.766 84.894 M245.694 85.257 C 245.959 85.308,246.342 85.306,246.545 85.253 C 246.748 85.199,246.532 85.158,246.064 85.160 C 245.596 85.162,245.429 85.206,245.694 85.257 M310.800 85.257 C 311.065 85.308,311.448 85.306,311.651 85.253 C 311.855 85.199,311.638 85.158,311.170 85.160 C 310.702 85.162,310.536 85.206,310.800 85.257 M247.340 85.526 C 247.747 85.706,249.103 85.828,248.918 85.668 C 248.870 85.626,248.399 85.534,247.872 85.465 C 247.233 85.380,247.056 85.401,247.340 85.526 M309.255 85.532 C 308.666 85.682,308.658 85.696,309.149 85.716 C 309.441 85.728,309.824 85.645,310.000 85.532 C 310.362 85.298,310.175 85.298,309.255 85.532 M250.851 85.973 C 251.144 86.104,252.197 86.243,253.191 86.283 L 255.000 86.355 253.298 86.182 C 252.362 86.086,251.309 85.947,250.957 85.871 C 250.344 85.740,250.340 85.744,250.851 85.973 M304.574 86.170 L 303.298 86.311 304.574 86.332 C 305.277 86.344,306.043 86.271,306.277 86.170 L 306.702 85.987 306.277 86.008 C 306.043 86.020,305.277 86.093,304.574 86.170 M255.638 86.590 C 256.045 86.770,257.401 86.892,257.216 86.732 C 257.168 86.690,256.697 86.598,256.170 86.528 C 255.531 86.444,255.354 86.464,255.638 86.590 M301.702 86.596 C 300.975 86.749,300.972 86.753,301.596 86.766 C 301.947 86.773,302.426 86.696,302.660 86.596 C 303.171 86.376,302.747 86.376,301.702 86.596 M258.564 86.964 C 259.003 87.009,259.721 87.009,260.160 86.964 C 260.598 86.918,260.239 86.880,259.362 86.880 C 258.484 86.880,258.125 86.918,258.564 86.964 M298.240 86.962 C 298.618 87.009,299.288 87.010,299.729 86.964 C 300.171 86.918,299.862 86.879,299.043 86.878 C 298.223 86.877,297.862 86.915,298.240 86.962 M295.532 87.234 L 294.362 87.377 295.426 87.391 C 296.011 87.398,296.729 87.328,297.021 87.234 C 297.675 87.025,297.239 87.025,295.532 87.234 M262.606 87.386 C 262.928 87.435,263.455 87.435,263.777 87.386 C 264.098 87.338,263.835 87.298,263.191 87.298 C 262.548 87.298,262.285 87.338,262.606 87.386 M268.617 87.672 C 269.085 87.769,269.755 87.842,270.106 87.835 L 270.745 87.822 270.106 87.660 C 269.755 87.570,269.085 87.497,268.617 87.496 L 267.766 87.496 268.617 87.672 M288.830 87.660 L 287.979 87.812 288.830 87.817 C 289.298 87.820,289.968 87.749,290.319 87.660 L 290.957 87.497 290.319 87.502 C 289.968 87.505,289.298 87.576,288.830 87.660 M270.638 194.458 C 270.638 194.570,270.040 194.698,269.309 194.743 C 268.577 194.788,269.654 194.781,271.702 194.729 C 275.996 194.619,277.172 194.255,273.234 194.255 C 271.728 194.255,270.638 194.341,270.638 194.458 M283.404 194.438 C 283.404 194.641,290.818 194.997,291.012 194.803 C 291.080 194.736,290.496 194.681,289.716 194.681 C 288.913 194.681,288.298 194.589,288.298 194.468 C 288.298 194.339,287.340 194.255,285.851 194.255 C 284.505 194.255,283.404 194.337,283.404 194.438 M264.206 195.048 C 264.588 195.095,265.163 195.094,265.483 195.046 C 265.802 194.997,265.489 194.958,264.787 194.960 C 264.085 194.961,263.824 195.000,264.206 195.048 M292.784 194.973 C 292.832 195.017,293.782 195.104,294.894 195.167 C 296.335 195.249,296.610 195.232,295.851 195.107 C 294.753 194.925,292.627 194.833,292.784 194.973 M262.074 195.257 C 262.338 195.307,262.769 195.307,263.032 195.257 C 263.295 195.206,263.080 195.164,262.553 195.164 C 262.027 195.164,261.811 195.206,262.074 195.257 M259.309 195.473 C 259.689 195.520,260.311 195.520,260.691 195.473 C 261.072 195.426,260.761 195.387,260.000 195.387 C 259.239 195.387,258.928 195.426,259.309 195.473 M297.823 195.473 C 298.205 195.521,298.780 195.520,299.100 195.471 C 299.419 195.423,299.106 195.384,298.404 195.385 C 297.702 195.386,297.441 195.426,297.823 195.473 M256.170 195.745 C 255.107 195.969,256.198 195.978,257.447 195.756 C 258.310 195.602,258.331 195.585,257.660 195.587 C 257.250 195.587,256.580 195.658,256.170 195.745 M300.745 195.757 C 301.213 195.854,301.835 195.927,302.128 195.921 C 302.469 195.913,302.354 195.845,301.809 195.732 C 301.340 195.636,300.718 195.562,300.426 195.569 C 300.084 195.576,300.199 195.644,300.745 195.757 M252.447 196.178 C 252.045 196.286,252.320 196.306,253.191 196.231 C 253.952 196.167,254.614 196.079,254.663 196.036 C 254.824 195.893,253.097 196.005,252.447 196.178 M303.422 196.034 C 303.471 196.077,304.085 196.165,304.787 196.230 C 305.580 196.304,305.862 196.283,305.532 196.174 C 305.006 196.002,303.250 195.886,303.422 196.034 M250.691 196.530 C 250.896 196.583,251.231 196.583,251.436 196.530 C 251.641 196.476,251.473 196.432,251.064 196.432 C 250.654 196.432,250.487 196.476,250.691 196.530 M247.872 196.809 L 247.340 196.979 247.872 196.975 C 248.165 196.973,248.691 196.898,249.043 196.809 L 249.681 196.646 249.043 196.642 C 248.691 196.640,248.165 196.715,247.872 196.809 M308.103 196.674 C 308.152 196.717,308.574 196.810,309.043 196.882 C 309.636 196.972,309.765 196.953,309.468 196.818 C 309.060 196.633,307.920 196.513,308.103 196.674 M246.120 197.172 C 246.384 197.223,246.767 197.221,246.971 197.167 C 247.174 197.114,246.957 197.073,246.489 197.075 C 246.021 197.077,245.855 197.121,246.120 197.172 M310.375 197.172 C 310.639 197.223,311.022 197.221,311.226 197.167 C 311.429 197.114,311.213 197.073,310.745 197.075 C 310.277 197.077,310.110 197.121,310.375 197.172 M244.043 197.447 C 243.621 197.582,243.599 197.617,243.936 197.617 C 244.170 197.617,244.601 197.541,244.894 197.447 C 245.315 197.312,245.337 197.276,245.000 197.276 C 244.766 197.276,244.335 197.353,244.043 197.447 M311.720 197.312 C 311.769 197.355,312.191 197.449,312.660 197.520 C 313.253 197.610,313.382 197.591,313.085 197.457 C 312.677 197.272,311.537 197.151,311.720 197.312 M242.181 197.806 C 242.386 197.860,242.721 197.860,242.926 197.806 C 243.130 197.753,242.963 197.709,242.553 197.709 C 242.144 197.709,241.976 197.753,242.181 197.806 M315.426 198.085 C 315.660 198.186,316.043 198.265,316.277 198.262 C 316.619 198.257,316.598 198.222,316.170 198.085 C 315.443 197.852,314.883 197.852,315.426 198.085 M237.979 198.521 C 237.682 198.655,237.811 198.674,238.404 198.584 C 238.872 198.513,239.295 198.419,239.344 198.376 C 239.527 198.215,238.387 198.336,237.979 198.521 M317.553 198.511 C 317.787 198.611,318.122 198.693,318.298 198.693 C 318.499 198.693,318.460 198.626,318.191 198.511 C 317.957 198.410,317.622 198.328,317.447 198.328 C 317.246 198.328,317.285 198.395,317.553 198.511 M235.000 199.149 C 234.458 199.382,235.017 199.382,235.745 199.149 C 236.172 199.012,236.193 198.977,235.851 198.972 C 235.617 198.969,235.234 199.048,235.000 199.149 M320.319 199.149 C 320.553 199.250,320.888 199.332,321.064 199.332 C 321.265 199.332,321.226 199.264,320.957 199.149 C 320.723 199.048,320.388 198.966,320.213 198.966 C 320.012 198.966,320.051 199.034,320.319 199.149 M322.447 199.686 C 323.788 200.058,324.165 200.056,323.191 199.681 C 322.782 199.523,322.207 199.393,321.915 199.392 C 321.607 199.391,321.831 199.515,322.447 199.686 M231.915 199.787 C 231.487 199.924,231.466 199.959,231.809 199.964 C 232.043 199.967,232.426 199.888,232.660 199.787 C 233.202 199.554,232.642 199.554,231.915 199.787 M229.894 200.213 C 229.351 200.446,229.911 200.446,230.638 200.213 C 231.066 200.076,231.087 200.041,230.745 200.036 C 230.511 200.033,230.128 200.112,229.894 200.213 M325.000 200.325 C 325.468 200.494,325.995 200.629,326.170 200.626 C 326.346 200.622,326.106 200.482,325.638 200.313 C 325.170 200.144,324.644 200.009,324.468 200.013 C 324.293 200.016,324.532 200.157,325.000 200.325 M328.715 201.388 C 329.237 201.551,329.697 201.651,329.736 201.611 C 329.845 201.502,328.498 201.062,328.107 201.078 C 327.919 201.086,328.193 201.225,328.715 201.388 M222.447 202.027 C 221.979 202.182,221.739 202.314,221.915 202.321 C 222.090 202.328,222.665 202.198,223.191 202.032 C 223.718 201.866,223.957 201.734,223.723 201.739 C 223.489 201.743,222.915 201.873,222.447 202.027 M330.822 202.030 C 331.216 202.201,331.695 202.336,331.886 202.331 C 332.077 202.326,331.851 202.184,331.383 202.015 C 330.280 201.618,329.897 201.628,330.822 202.030 M220.426 202.545 C 220.133 202.639,219.477 202.830,218.969 202.968 C 218.460 203.107,218.079 203.256,218.121 203.299 C 218.221 203.399,221.044 202.644,221.217 202.471 C 221.385 202.303,221.095 202.330,220.426 202.545 M214.149 204.368 C 213.681 204.522,213.489 204.648,213.723 204.648 C 213.957 204.648,214.484 204.519,214.894 204.362 C 215.848 203.994,215.269 203.999,214.149 204.368 M338.907 204.796 C 339.301 204.967,339.684 205.103,339.758 205.099 C 340.035 205.083,338.817 204.483,338.511 204.484 C 338.335 204.484,338.514 204.625,338.907 204.796 M210.745 205.433 C 209.885 205.827,210.399 205.827,211.305 205.434 C 211.699 205.263,211.878 205.127,211.702 205.132 C 211.527 205.137,211.096 205.272,210.745 205.433 M340.610 205.434 C 341.003 205.605,341.386 205.741,341.461 205.737 C 341.737 205.722,340.519 205.121,340.213 205.122 C 340.037 205.123,340.216 205.263,340.610 205.434 M342.205 206.065 C 342.540 206.240,342.923 206.382,343.056 206.382 C 343.189 206.381,343.024 206.237,342.688 206.063 C 342.353 205.888,341.970 205.745,341.837 205.746 C 341.704 205.747,341.870 205.890,342.205 206.065 M205.638 207.135 C 204.779 207.529,205.293 207.529,206.199 207.136 C 206.593 206.965,206.771 206.829,206.596 206.834 C 206.420 206.839,205.989 206.975,205.638 207.135 M203.723 207.774 C 202.864 208.167,203.378 208.168,204.284 207.774 C 204.678 207.603,204.856 207.467,204.681 207.472 C 204.505 207.477,204.074 207.613,203.723 207.774 M346.289 207.759 C 346.516 207.931,346.846 208.074,347.021 208.077 C 347.197 208.080,347.066 207.939,346.731 207.765 C 345.955 207.360,345.758 207.358,346.289 207.759 M200.851 208.830 C 200.156 209.227,200.399 209.231,201.305 208.838 C 201.699 208.667,201.878 208.527,201.702 208.527 C 201.527 208.526,201.144 208.663,200.851 208.830 M199.149 209.486 C 198.430 209.885,198.942 209.870,199.710 209.469 C 200.045 209.295,200.176 209.160,200.000 209.171 C 199.824 209.182,199.441 209.323,199.149 209.486 M350.000 209.468 C 350.293 209.635,350.628 209.772,350.745 209.772 C 350.862 209.772,350.718 209.635,350.426 209.468 C 350.133 209.301,349.798 209.164,349.681 209.164 C 349.564 209.164,349.707 209.301,350.000 209.468 M197.553 210.081 C 196.809 210.364,195.991 210.835,196.226 210.845 C 196.316 210.848,196.555 210.767,196.758 210.664 C 196.961 210.561,197.463 210.328,197.872 210.145 C 198.729 209.765,198.503 209.719,197.553 210.081 M351.389 210.071 C 351.860 210.390,352.553 210.669,352.553 210.541 C 352.553 210.445,351.276 209.787,351.090 209.787 C 351.024 209.787,351.158 209.915,351.389 210.071 M194.521 211.381 C 194.141 211.546,193.830 211.732,193.830 211.794 C 193.830 211.925,194.908 211.487,195.202 211.236 C 195.481 210.998,195.327 211.031,194.521 211.381 M1.064 212.872 C 2.035 213.246,2.417 213.241,1.596 212.865 C 1.245 212.704,0.814 212.575,0.638 212.579 C 0.463 212.583,0.654 212.715,1.064 212.872 M190.851 213.191 C 190.207 213.532,189.777 213.810,189.894 213.810 C 190.011 213.810,190.633 213.532,191.277 213.191 C 191.920 212.851,192.351 212.573,192.234 212.573 C 192.117 212.573,191.495 212.851,190.851 213.191 M187.872 214.574 C 187.580 214.742,187.436 214.879,187.553 214.879 C 187.670 214.879,188.005 214.742,188.298 214.574 C 188.590 214.407,188.734 214.270,188.617 214.270 C 188.500 214.270,188.165 214.407,187.872 214.574 M359.805 214.331 C 360.144 214.618,362.340 215.931,362.340 215.846 C 362.340 215.713,360.075 214.255,359.868 214.255 C 359.785 214.255,359.756 214.289,359.805 214.331 M8.617 215.220 C 8.968 215.381,9.447 215.511,9.681 215.508 C 9.915 215.506,9.676 215.368,9.149 215.202 C 7.968 214.830,7.778 214.836,8.617 215.220 M186.383 215.230 C 186.086 215.395,185.992 215.524,186.170 215.522 C 186.346 215.520,186.675 215.378,186.902 215.206 C 187.414 214.819,187.098 214.834,186.383 215.230 M184.574 216.059 C 183.989 216.335,183.575 216.568,183.653 216.578 C 183.876 216.606,185.745 215.773,185.745 215.646 C 185.745 215.500,185.813 215.476,184.574 216.059 M12.234 216.283 C 13.337 216.680,13.720 216.670,12.795 216.268 C 12.401 216.097,11.922 215.962,11.731 215.967 C 11.540 215.972,11.766 216.114,12.234 216.283 M362.872 216.276 C 364.026 217.191,366.170 218.726,366.170 218.637 C 366.170 218.501,363.888 216.781,363.085 216.312 C 362.632 216.047,362.570 216.036,362.872 216.276 M182.447 216.923 C 182.096 217.083,181.952 217.216,182.128 217.217 C 182.303 217.218,182.686 217.082,182.979 216.915 C 183.651 216.530,183.292 216.536,182.447 216.923 M18.298 217.990 C 18.824 218.156,19.351 218.286,19.468 218.278 C 19.840 218.256,18.210 217.692,17.766 217.690 C 17.532 217.689,17.771 217.824,18.298 217.990 M179.787 217.979 C 179.092 218.376,179.335 218.380,180.242 217.987 C 180.635 217.816,180.814 217.676,180.638 217.675 C 180.463 217.675,180.080 217.811,179.787 217.979 M20.638 218.617 C 21.048 218.775,21.574 218.905,21.809 218.906 C 22.043 218.907,21.803 218.772,21.277 218.606 C 20.074 218.227,19.645 218.235,20.638 218.617 M367.660 219.919 C 369.430 221.496,374.438 226.502,376.042 228.298 L 377.276 229.681 376.147 228.298 C 374.437 226.205,370.343 222.082,368.191 220.286 C 367.138 219.407,366.899 219.241,367.660 219.919 M22.660 219.149 C 22.894 219.250,23.229 219.332,23.404 219.332 C 23.605 219.332,23.566 219.264,23.298 219.149 C 23.064 219.048,22.729 218.966,22.553 218.966 C 22.352 218.966,22.391 219.034,22.660 219.149 M27.234 220.319 C 27.644 220.477,28.218 220.607,28.511 220.608 C 28.819 220.609,28.594 220.485,27.979 220.314 C 26.637 219.942,26.260 219.944,27.234 220.319 M29.468 220.851 C 29.702 220.952,30.037 221.034,30.213 221.034 C 30.414 221.034,30.375 220.966,30.106 220.851 C 29.872 220.750,29.537 220.668,29.362 220.668 C 29.161 220.668,29.200 220.736,29.468 220.851 M170.582 221.215 C 170.024 221.401,169.607 221.592,169.654 221.640 C 169.751 221.737,171.915 221.060,171.915 220.933 C 171.915 220.802,171.660 220.856,170.582 221.215 M32.234 221.489 C 32.468 221.590,32.803 221.672,32.979 221.672 C 33.180 221.672,33.141 221.605,32.872 221.489 C 32.638 221.389,32.303 221.307,32.128 221.307 C 31.926 221.307,31.966 221.374,32.234 221.489 M34.468 222.032 C 34.995 222.198,35.569 222.329,35.745 222.323 C 35.920 222.317,35.633 222.176,35.106 222.010 C 34.580 221.844,34.005 221.714,33.830 221.720 C 33.654 221.726,33.941 221.866,34.468 222.032 M168.085 222.021 C 167.676 222.179,167.484 222.308,167.660 222.308 C 167.835 222.308,168.314 222.179,168.723 222.021 C 169.133 221.864,169.324 221.735,169.149 221.735 C 168.973 221.735,168.495 221.864,168.085 222.021 M36.809 222.553 C 37.536 222.786,38.095 222.786,37.553 222.553 C 37.319 222.453,36.936 222.373,36.702 222.377 C 36.360 222.382,36.381 222.416,36.809 222.553 M42.340 223.732 C 42.984 223.893,43.606 224.019,43.723 224.011 C 44.151 223.985,42.218 223.437,41.702 223.439 C 41.410 223.440,41.697 223.572,42.340 223.732 M162.553 223.627 C 162.320 223.784,162.406 223.804,162.872 223.700 C 163.655 223.525,163.824 223.403,163.280 223.408 C 163.056 223.409,162.729 223.508,162.553 223.627 M44.486 224.121 C 44.535 224.164,44.957 224.257,45.426 224.328 C 46.019 224.419,46.148 224.400,45.851 224.265 C 45.443 224.080,44.303 223.960,44.486 224.121 M160.106 224.255 C 159.838 224.371,159.799 224.438,160.000 224.438 C 160.176 224.438,160.511 224.356,160.745 224.255 C 161.013 224.140,161.052 224.072,160.851 224.072 C 160.676 224.072,160.340 224.155,160.106 224.255 M48.298 224.894 C 48.590 224.987,49.021 225.064,49.255 225.064 C 49.592 225.064,49.570 225.029,49.149 224.894 C 48.856 224.800,48.426 224.723,48.191 224.723 C 47.855 224.723,47.877 224.759,48.298 224.894 M157.553 224.894 C 157.285 225.009,157.246 225.076,157.447 225.076 C 157.622 225.076,157.957 224.994,158.191 224.894 C 158.460 224.778,158.499 224.711,158.298 224.711 C 158.122 224.711,157.787 224.793,157.553 224.894 M50.053 225.253 C 50.258 225.307,50.593 225.307,50.798 225.253 C 51.003 225.200,50.835 225.156,50.426 225.156 C 50.016 225.156,49.848 225.200,50.053 225.253 M155.213 225.431 C 154.080 225.805,154.718 225.804,156.064 225.431 C 156.651 225.268,156.889 225.139,156.596 225.143 C 156.303 225.147,155.681 225.277,155.213 225.431 M51.596 225.522 C 52.004 225.707,53.144 225.828,52.961 225.667 C 52.912 225.624,52.489 225.530,52.021 225.459 C 51.428 225.368,51.299 225.388,51.596 225.522 M54.149 225.957 C 55.049 226.186,55.821 226.186,55.106 225.957 C 54.814 225.864,54.335 225.789,54.043 225.791 C 53.565 225.795,53.576 225.812,54.149 225.957 M152.872 225.957 C 152.330 226.190,152.890 226.190,153.617 225.957 C 154.045 225.821,154.065 225.786,153.723 225.781 C 153.489 225.777,153.106 225.857,152.872 225.957 M56.011 226.317 C 56.215 226.370,56.551 226.370,56.755 226.317 C 56.960 226.263,56.793 226.220,56.383 226.220 C 55.973 226.220,55.806 226.263,56.011 226.317 M57.872 226.596 C 58.165 226.689,58.644 226.764,58.936 226.762 C 59.414 226.759,59.403 226.742,58.830 226.596 C 57.930 226.367,57.157 226.367,57.872 226.596 M60.162 226.959 C 60.427 227.010,60.810 227.008,61.013 226.955 C 61.217 226.901,61.000 226.860,60.532 226.862 C 60.064 226.865,59.897 226.908,60.162 226.959 M146.809 227.144 L 145.851 227.438 146.702 227.303 C 147.170 227.229,147.936 227.099,148.404 227.015 L 149.255 226.862 148.511 226.856 C 148.101 226.853,147.335 226.983,146.809 227.144 M65.213 227.672 C 66.291 227.895,67.161 227.885,66.277 227.660 C 65.926 227.570,65.351 227.497,65.000 227.496 C 64.463 227.496,64.497 227.524,65.213 227.672 M143.617 227.670 C 143.258 227.792,143.432 227.811,144.149 227.728 C 144.734 227.660,145.253 227.569,145.301 227.526 C 145.469 227.376,144.149 227.489,143.617 227.670 M67.396 228.023 C 67.661 228.074,68.044 228.072,68.247 228.019 C 68.451 227.965,68.234 227.924,67.766 227.926 C 67.298 227.928,67.131 227.972,67.396 228.023 M141.968 228.019 C 142.173 228.073,142.508 228.073,142.713 228.019 C 142.918 227.965,142.750 227.922,142.340 227.922 C 141.931 227.922,141.763 227.965,141.968 228.019 M69.894 228.310 C 70.362 228.407,70.984 228.481,71.277 228.474 C 71.618 228.466,71.503 228.399,70.957 228.286 C 70.489 228.189,69.867 228.115,69.574 228.122 C 69.233 228.130,69.348 228.197,69.894 228.310 M139.574 228.298 L 139.043 228.468 139.574 228.464 C 139.867 228.462,140.394 228.387,140.745 228.298 L 141.383 228.135 140.745 228.131 C 140.394 228.129,139.867 228.204,139.574 228.298 M73.191 228.728 C 73.952 228.814,75.245 228.941,76.064 229.009 L 77.553 229.134 75.745 228.841 C 74.750 228.680,73.457 228.553,72.872 228.559 C 71.857 228.571,71.871 228.578,73.191 228.728 M137.290 228.663 C 137.614 228.712,138.092 228.711,138.354 228.660 C 138.616 228.610,138.351 228.570,137.766 228.571 C 137.181 228.573,136.967 228.614,137.290 228.663 M134.894 228.936 C 134.176 229.087,134.172 229.093,134.787 229.096 C 135.138 229.097,135.713 229.026,136.064 228.936 C 136.947 228.711,135.961 228.711,134.894 228.936 M78.777 229.301 C 79.098 229.350,79.625 229.350,79.947 229.301 C 80.269 229.253,80.005 229.213,79.362 229.213 C 78.718 229.213,78.455 229.253,78.777 229.301 M131.064 229.283 C 130.888 229.329,130.027 229.450,129.149 229.550 C 128.204 229.658,127.901 229.738,128.404 229.748 C 128.872 229.757,130.165 229.635,131.277 229.479 C 132.533 229.302,132.936 229.195,132.340 229.196 C 131.814 229.197,131.239 229.236,131.064 229.283 M81.013 229.512 C 81.278 229.563,81.661 229.561,81.864 229.508 C 82.068 229.455,81.851 229.413,81.383 229.415 C 80.915 229.418,80.748 229.461,81.013 229.512 M82.929 229.729 C 83.312 229.776,83.886 229.775,84.206 229.726 C 84.526 229.678,84.213 229.639,83.511 229.640 C 82.809 229.642,82.547 229.681,82.929 229.729 M87.234 230.008 C 87.995 230.093,89.144 230.159,89.787 230.154 C 90.931 230.146,90.924 230.142,89.468 229.993 C 88.649 229.909,87.500 229.843,86.915 229.846 C 85.914 229.852,85.933 229.861,87.234 230.008 M122.979 230.000 C 121.827 230.141,121.823 230.144,122.766 230.153 C 123.293 230.159,124.346 230.093,125.106 230.008 L 126.489 229.852 125.319 229.854 C 124.676 229.856,123.622 229.921,122.979 230.000 M378.323 231.170 C 378.935 231.989,379.578 232.803,379.751 232.979 C 380.309 233.545,378.641 231.253,377.914 230.454 C 377.527 230.029,377.711 230.351,378.323 231.170 M92.934 230.371 C 93.670 230.412,94.819 230.412,95.487 230.370 C 96.155 230.328,95.553 230.294,94.149 230.294 C 92.745 230.294,92.198 230.329,92.934 230.371 M117.500 230.370 C 118.173 230.412,119.274 230.412,119.947 230.370 C 120.620 230.328,120.069 230.293,118.723 230.293 C 117.378 230.293,116.827 230.328,117.500 230.370 M99.852 230.584 C 101.116 230.622,103.127 230.622,104.320 230.584 C 105.513 230.546,104.479 230.515,102.021 230.516 C 99.564 230.516,98.588 230.547,99.852 230.584 M108.989 230.584 C 110.130 230.622,111.997 230.622,113.138 230.584 C 114.279 230.546,113.346 230.515,111.064 230.515 C 108.782 230.515,107.848 230.546,108.989 230.584 M381.277 235.213 C 381.639 235.739,381.983 236.170,382.042 236.170 C 382.100 236.170,381.852 235.739,381.489 235.213 C 381.127 234.686,380.783 234.255,380.724 234.255 C 380.666 234.255,380.914 234.686,381.277 235.213 M382.574 237.116 C 382.820 237.533,383.108 237.927,383.213 237.992 C 383.319 238.057,383.204 237.770,382.958 237.353 C 382.712 236.936,382.424 236.541,382.319 236.476 C 382.213 236.411,382.328 236.699,382.574 237.116 M385.769 242.338 C 386.031 242.805,386.281 243.152,386.323 243.110 C 386.415 243.018,385.535 241.489,385.391 241.489 C 385.336 241.489,385.507 241.871,385.769 242.338 M387.872 246.170 C 388.111 246.638,388.354 247.021,388.413 247.021 C 388.471 247.021,388.324 246.638,388.085 246.170 C 387.846 245.702,387.603 245.319,387.545 245.319 C 387.486 245.319,387.634 245.702,387.872 246.170 M390.048 250.585 C 390.319 251.214,390.851 252.083,390.851 251.896 C 390.851 251.696,389.994 250.000,389.893 250.000 C 389.840 250.000,389.910 250.263,390.048 250.585 M390.931 252.340 C 391.118 253.031,391.760 254.481,391.843 254.398 C 391.891 254.350,391.686 253.795,391.388 253.166 C 391.089 252.536,390.883 252.165,390.931 252.340 M391.930 254.787 C 391.930 254.904,392.067 255.239,392.234 255.532 C 392.401 255.824,392.538 255.968,392.538 255.851 C 392.538 255.734,392.401 255.399,392.234 255.106 C 392.067 254.814,391.930 254.670,391.930 254.787 M392.561 256.199 C 392.557 256.273,392.693 256.656,392.864 257.050 C 393.035 257.444,393.175 257.622,393.176 257.447 C 393.176 257.140,392.576 255.922,392.561 256.199 M394.263 260.667 C 394.259 260.741,394.395 261.124,394.566 261.518 C 394.737 261.912,394.877 262.090,394.878 261.915 C 394.879 261.608,394.278 260.390,394.263 260.667 M395.003 262.872 C 395.082 263.106,395.295 263.754,395.478 264.311 C 395.661 264.868,395.851 265.284,395.899 265.235 C 396.009 265.126,395.380 263.242,395.080 262.783 C 394.902 262.509,394.888 262.526,395.003 262.872 M395.966 265.667 C 395.961 265.800,396.097 266.231,396.268 266.625 C 396.439 267.018,396.583 267.232,396.587 267.099 C 396.592 266.966,396.456 266.535,396.285 266.141 C 396.114 265.748,395.970 265.534,395.966 265.667 M397.692 271.489 C 397.692 271.665,397.821 272.144,397.979 272.553 C 398.136 272.963,398.265 273.154,398.265 272.979 C 398.265 272.803,398.136 272.324,397.979 271.915 C 397.821 271.505,397.692 271.314,397.692 271.489 M398.325 273.830 C 398.320 273.888,398.450 274.415,398.612 275.000 C 398.791 275.644,398.909 275.854,398.912 275.532 C 398.916 275.100,398.352 273.465,398.325 273.830 M398.966 276.383 C 398.966 276.559,399.048 276.894,399.149 277.128 C 399.264 277.396,399.332 277.435,399.332 277.234 C 399.332 277.059,399.250 276.723,399.149 276.489 C 399.034 276.221,398.966 276.182,398.966 276.383 M399.394 278.085 C 399.352 278.589,399.606 279.362,399.812 279.362 C 399.915 279.362,400.000 279.218,400.000 279.043 C 400.000 278.867,399.911 278.723,399.802 278.723 C 399.693 278.723,399.563 278.508,399.512 278.245 C 399.461 277.981,399.408 277.910,399.394 278.085 " stroke="none" fill="#646b7a" fill-rule="evenodd"></path><path id="path2" d="M104.309 51.855 C 104.630 51.903,105.157 51.903,105.479 51.855 C 105.801 51.806,105.537 51.766,104.894 51.766 C 104.250 51.766,103.987 51.806,104.309 51.855 M108.036 51.856 C 108.418 51.904,108.993 51.903,109.312 51.854 C 109.632 51.806,109.319 51.767,108.617 51.768 C 107.915 51.769,107.653 51.809,108.036 51.856 M86.994 52.582 C 86.677 52.671,86.983 52.731,87.819 52.745 C 88.551 52.756,89.149 52.728,89.149 52.682 C 89.149 52.519,87.492 52.442,86.994 52.582 M124.043 52.573 C 123.411 52.689,123.484 52.714,124.521 52.738 C 125.194 52.753,125.745 52.729,125.745 52.684 C 125.745 52.509,124.749 52.444,124.043 52.573 M69.881 54.275 C 69.816 54.381,70.007 54.468,70.307 54.468 C 70.959 54.468,71.011 54.347,70.426 54.194 C 70.192 54.133,69.947 54.169,69.881 54.275 M64.149 54.894 C 63.739 55.070,63.740 55.077,64.190 55.091 C 64.446 55.100,64.715 55.011,64.787 54.894 C 64.943 54.642,64.735 54.642,64.149 54.894 M53.617 56.596 C 53.117 56.756,53.127 56.767,53.789 56.787 C 54.209 56.800,54.440 56.723,54.362 56.596 C 54.289 56.479,54.212 56.393,54.190 56.404 C 54.167 56.416,53.910 56.502,53.617 56.596 M44.521 58.445 C 44.726 58.498,45.061 58.498,45.266 58.445 C 45.471 58.391,45.303 58.347,44.894 58.347 C 44.484 58.347,44.316 58.391,44.521 58.445 M238.777 84.189 C 238.981 84.243,239.316 84.243,239.521 84.189 C 239.726 84.136,239.559 84.092,239.149 84.092 C 238.739 84.092,238.572 84.136,238.777 84.189 M307.979 85.759 C 307.393 85.895,307.415 85.909,308.245 85.932 C 309.147 85.957,309.387 85.870,308.883 85.701 C 308.737 85.652,308.330 85.678,307.979 85.759 M248.780 85.897 C 249.103 85.946,249.582 85.945,249.843 85.894 C 250.105 85.844,249.840 85.804,249.255 85.806 C 248.670 85.807,248.456 85.848,248.780 85.897 M263.707 87.475 C 263.365 87.549,263.995 87.608,265.106 87.605 C 267.108 87.602,267.184 87.523,265.303 87.403 C 264.768 87.368,264.050 87.401,263.707 87.475 M293.191 87.465 C 292.107 87.581,292.150 87.593,293.777 87.625 C 295.525 87.659,296.060 87.565,294.947 87.418 C 294.625 87.375,293.835 87.397,293.191 87.465 M269.149 194.468 C 269.149 194.585,269.340 194.681,269.574 194.681 C 269.809 194.681,270.000 194.585,270.000 194.468 C 270.000 194.351,269.809 194.255,269.574 194.255 C 269.340 194.255,269.149 194.351,269.149 194.468 M289.149 194.468 C 289.149 194.585,289.293 194.681,289.468 194.681 C 289.644 194.681,289.787 194.585,289.787 194.468 C 289.787 194.351,289.644 194.255,289.468 194.255 C 289.293 194.255,289.149 194.351,289.149 194.468 M264.737 194.834 C 265.060 194.882,265.539 194.881,265.801 194.831 C 266.062 194.780,265.798 194.740,265.213 194.742 C 264.628 194.743,264.414 194.785,264.737 194.834 M292.819 194.833 C 293.141 194.882,293.668 194.882,293.989 194.833 C 294.311 194.784,294.048 194.745,293.404 194.745 C 292.761 194.745,292.497 194.784,292.819 194.833 M86.330 229.725 C 86.593 229.775,87.024 229.775,87.287 229.725 C 87.551 229.674,87.335 229.632,86.809 229.632 C 86.282 229.632,86.066 229.674,86.330 229.725 M125.053 229.725 C 125.316 229.775,125.747 229.775,126.011 229.725 C 126.274 229.674,126.059 229.632,125.532 229.632 C 125.005 229.632,124.790 229.674,125.053 229.725 M100.160 230.370 C 100.774 230.413,101.779 230.413,102.394 230.370 C 103.008 230.327,102.505 230.291,101.277 230.291 C 100.048 230.291,99.545 230.327,100.160 230.370 M104.202 230.367 C 104.582 230.414,105.205 230.414,105.585 230.367 C 105.965 230.319,105.654 230.281,104.894 230.281 C 104.133 230.281,103.822 230.319,104.202 230.367 M108.893 230.371 C 109.864 230.411,111.396 230.411,112.297 230.371 C 113.199 230.331,112.404 230.299,110.532 230.299 C 108.660 230.299,107.922 230.332,108.893 230.371 " stroke="none" fill="#465062" fill-rule="evenodd"></path><path id="path3" d="M101.765 52.073 C 102.677 52.113,104.113 52.113,104.957 52.073 C 105.800 52.032,105.053 52.000,103.298 52.000 C 101.543 52.000,100.853 52.033,101.765 52.073 M108.342 52.072 C 109.127 52.113,110.467 52.114,111.320 52.073 C 112.174 52.033,111.532 51.999,109.894 51.999 C 108.255 51.999,107.557 52.032,108.342 52.072 M84.947 52.706 C 85.269 52.754,85.795 52.754,86.117 52.706 C 86.439 52.657,86.176 52.617,85.532 52.617 C 84.888 52.617,84.625 52.657,84.947 52.706 M126.223 52.706 C 126.545 52.754,127.072 52.754,127.394 52.706 C 127.715 52.657,127.452 52.617,126.809 52.617 C 126.165 52.617,125.902 52.657,126.223 52.706 M68.673 54.406 C 68.937 54.457,69.320 54.455,69.524 54.402 C 69.727 54.348,69.511 54.307,69.043 54.309 C 68.574 54.311,68.408 54.355,68.673 54.406 M140.904 54.402 C 141.109 54.456,141.444 54.456,141.649 54.402 C 141.854 54.348,141.686 54.305,141.277 54.305 C 140.867 54.305,140.699 54.348,140.904 54.402 M291.117 87.593 C 291.322 87.647,291.657 87.647,291.862 87.593 C 292.066 87.540,291.899 87.496,291.489 87.496 C 291.080 87.496,290.912 87.540,291.117 87.593 M270.000 194.468 C 270.000 194.585,270.144 194.681,270.319 194.681 C 270.495 194.681,270.638 194.585,270.638 194.468 C 270.638 194.351,270.495 194.255,270.319 194.255 C 270.144 194.255,270.000 194.351,270.000 194.468 M288.298 194.468 C 288.298 194.585,288.489 194.681,288.723 194.681 C 288.957 194.681,289.149 194.585,289.149 194.468 C 289.149 194.351,288.957 194.255,288.723 194.255 C 288.489 194.255,288.298 194.351,288.298 194.468 M266.543 194.831 C 266.806 194.882,267.237 194.882,267.500 194.831 C 267.763 194.780,267.548 194.739,267.021 194.739 C 266.495 194.739,266.279 194.780,266.543 194.831 M291.330 194.828 C 291.535 194.881,291.870 194.881,292.074 194.828 C 292.279 194.774,292.112 194.730,291.702 194.730 C 291.293 194.730,291.125 194.774,291.330 194.828 M84.947 229.721 C 85.152 229.775,85.487 229.775,85.691 229.721 C 85.896 229.668,85.729 229.624,85.319 229.624 C 84.910 229.624,84.742 229.668,84.947 229.721 M126.649 229.721 C 126.854 229.775,127.189 229.775,127.394 229.721 C 127.598 229.668,127.431 229.624,127.021 229.624 C 126.612 229.624,126.444 229.668,126.649 229.721 M97.181 230.367 C 97.561 230.414,98.184 230.414,98.564 230.367 C 98.944 230.319,98.633 230.281,97.872 230.281 C 97.112 230.281,96.801 230.319,97.181 230.367 M114.415 230.367 C 114.795 230.414,115.418 230.414,115.798 230.367 C 116.178 230.319,115.867 230.281,115.106 230.281 C 114.346 230.281,114.035 230.319,114.415 230.367 " stroke="none" fill="#546471" fill-rule="evenodd"></path><path id="path4" d="M398.330 9.904 C 398.312 10.261,398.179 10.692,398.033 10.862 C 397.888 11.032,397.943 11.016,398.157 10.827 C 398.418 10.595,398.515 10.282,398.453 9.869 L 398.362 9.255 398.330 9.904 M90.532 52.553 L 89.468 52.699 90.426 52.711 C 90.952 52.718,91.622 52.647,91.915 52.553 C 92.577 52.341,92.078 52.341,90.532 52.553 M120.957 52.561 C 121.369 52.730,123.566 52.845,123.387 52.688 C 123.338 52.646,122.676 52.560,121.915 52.499 C 121.103 52.433,120.708 52.459,120.957 52.561 M79.103 53.349 C 79.721 53.392,80.679 53.391,81.231 53.348 C 81.782 53.304,81.277 53.269,80.106 53.269 C 78.936 53.270,78.485 53.305,79.103 53.349 M130.698 53.348 C 131.257 53.392,132.119 53.392,132.613 53.347 C 133.107 53.302,132.649 53.266,131.596 53.267 C 130.543 53.268,130.139 53.304,130.698 53.348 M71.383 54.255 L 70.745 54.418 71.317 54.443 C 71.632 54.457,71.949 54.372,72.021 54.255 C 72.094 54.138,72.123 54.054,72.087 54.068 C 72.051 54.082,71.734 54.166,71.383 54.255 M138.723 54.246 C 138.899 54.364,139.226 54.463,139.450 54.465 C 139.995 54.469,139.825 54.347,139.043 54.172 C 138.576 54.068,138.490 54.088,138.723 54.246 M65.270 55.048 C 65.652 55.095,66.227 55.094,66.546 55.046 C 66.866 54.997,66.553 54.958,65.851 54.960 C 65.149 54.961,64.887 55.000,65.270 55.048 M143.460 55.046 C 143.784 55.095,144.263 55.094,144.524 55.043 C 144.786 54.993,144.521 54.953,143.936 54.954 C 143.351 54.956,143.137 54.997,143.460 55.046 M152.309 56.650 C 152.416 56.757,152.731 56.809,153.007 56.765 C 153.433 56.698,153.403 56.668,152.812 56.570 C 152.390 56.500,152.191 56.532,152.309 56.650 M54.734 56.742 C 54.939 56.796,55.274 56.796,55.479 56.742 C 55.684 56.689,55.516 56.645,55.106 56.645 C 54.697 56.645,54.529 56.689,54.734 56.742 M46.479 58.064 C 46.368 58.170,46.085 58.303,45.851 58.359 C 45.447 58.456,45.449 58.463,45.878 58.486 C 46.127 58.500,46.450 58.367,46.596 58.191 C 46.885 57.843,46.804 57.756,46.479 58.064 M41.651 59.087 C 41.916 59.138,42.299 59.136,42.502 59.082 C 42.706 59.029,42.489 58.987,42.021 58.990 C 41.553 58.992,41.387 59.036,41.651 59.087 M33.992 60.789 C 34.257 60.840,34.639 60.838,34.843 60.784 C 35.046 60.731,34.830 60.690,34.362 60.692 C 33.894 60.694,33.727 60.738,33.992 60.789 M173.164 62.181 C 173.325 62.386,173.707 62.540,174.015 62.524 L 174.574 62.495 174.043 62.397 C 173.750 62.344,173.367 62.189,173.191 62.054 C 172.914 61.840,172.910 61.857,173.164 62.181 M26.862 62.487 C 27.066 62.541,27.402 62.541,27.606 62.487 C 27.811 62.434,27.644 62.390,27.234 62.390 C 26.824 62.390,26.657 62.434,26.862 62.487 M15.202 65.511 C 15.091 65.617,14.809 65.749,14.574 65.806 C 14.171 65.903,14.172 65.909,14.602 65.933 C 14.851 65.946,15.173 65.814,15.319 65.638 C 15.608 65.290,15.527 65.202,15.202 65.511 M331.585 80.409 C 331.474 80.517,331.096 80.646,330.745 80.696 L 330.106 80.787 330.772 80.819 C 331.139 80.837,331.556 80.708,331.702 80.532 C 331.992 80.183,331.909 80.095,331.585 80.409 M222.928 80.789 C 223.193 80.840,223.576 80.838,223.779 80.784 C 223.982 80.731,223.766 80.690,223.298 80.692 C 222.830 80.694,222.663 80.738,222.928 80.789 M229.122 82.181 C 229.316 82.428,229.673 82.542,230.186 82.519 L 230.957 82.485 230.214 82.395 C 229.805 82.346,229.326 82.194,229.150 82.057 C 228.871 81.841,228.867 81.857,229.122 82.181 M237.416 84.096 C 237.523 84.204,237.837 84.256,238.114 84.212 C 238.540 84.145,238.510 84.115,237.919 84.017 C 237.496 83.947,237.298 83.978,237.416 84.096 M252.926 86.537 C 253.306 86.584,253.928 86.584,254.309 86.537 C 254.689 86.490,254.378 86.451,253.617 86.451 C 252.856 86.451,252.545 86.490,252.926 86.537 M303.883 86.535 C 304.205 86.584,304.731 86.584,305.053 86.535 C 305.375 86.487,305.112 86.447,304.468 86.447 C 303.824 86.447,303.561 86.487,303.883 86.535 M261.088 87.466 C 261.250 87.569,261.814 87.647,262.340 87.640 C 263.475 87.623,263.274 87.521,261.833 87.381 C 261.193 87.319,260.907 87.352,261.088 87.466 M296.383 87.447 L 295.426 87.596 296.277 87.624 C 296.745 87.640,297.271 87.560,297.447 87.447 C 297.622 87.333,297.670 87.253,297.553 87.269 C 297.436 87.285,296.910 87.365,296.383 87.447 M268.085 194.468 C 268.085 194.585,268.324 194.681,268.617 194.681 C 268.910 194.681,269.149 194.585,269.149 194.468 C 269.149 194.351,268.910 194.255,268.617 194.255 C 268.324 194.255,268.085 194.351,268.085 194.468 M289.787 194.468 C 289.787 194.585,289.979 194.681,290.213 194.681 C 290.447 194.681,290.638 194.585,290.638 194.468 C 290.638 194.351,290.447 194.255,290.213 194.255 C 289.979 194.255,289.787 194.351,289.787 194.468 M261.809 194.885 C 261.559 194.988,261.954 195.014,262.766 194.948 C 263.527 194.886,264.189 194.801,264.238 194.758 C 264.417 194.602,262.220 194.716,261.809 194.885 M294.486 194.758 C 294.535 194.800,295.149 194.887,295.851 194.950 C 296.622 195.020,296.959 194.996,296.702 194.888 C 296.293 194.717,294.305 194.600,294.486 194.758 M255.851 195.542 C 255.554 195.676,255.683 195.695,256.277 195.605 C 256.745 195.534,257.168 195.440,257.216 195.397 C 257.399 195.236,256.260 195.357,255.851 195.542 M301.082 195.395 C 301.130 195.437,301.505 195.532,301.915 195.607 C 302.439 195.704,302.565 195.682,302.340 195.535 C 302.052 195.346,300.871 195.214,301.082 195.395 M253.142 195.899 C 253.525 195.946,254.099 195.945,254.419 195.897 C 254.738 195.848,254.426 195.809,253.723 195.811 C 253.021 195.812,252.760 195.852,253.142 195.899 M303.886 195.897 C 304.209 195.946,304.688 195.945,304.950 195.894 C 305.211 195.844,304.947 195.804,304.362 195.806 C 303.777 195.807,303.562 195.848,303.886 195.897 M247.447 196.593 C 247.229 196.732,247.399 196.755,247.979 196.666 C 249.030 196.505,249.210 196.382,248.387 196.386 C 248.045 196.388,247.622 196.481,247.447 196.593 M308.723 196.465 C 308.723 196.510,309.006 196.589,309.350 196.639 C 309.695 196.690,309.929 196.653,309.870 196.557 C 309.764 196.387,308.723 196.303,308.723 196.465 M242.077 197.597 C 242.342 197.648,242.725 197.646,242.928 197.593 C 243.131 197.540,242.915 197.498,242.447 197.500 C 241.979 197.503,241.812 197.546,242.077 197.597 M314.096 197.593 C 314.301 197.647,314.636 197.647,314.840 197.593 C 315.045 197.540,314.878 197.496,314.468 197.496 C 314.059 197.496,313.891 197.540,314.096 197.593 M237.660 198.301 C 237.435 198.448,237.561 198.470,238.085 198.373 C 239.003 198.205,239.176 198.084,238.493 198.088 C 238.210 198.090,237.835 198.186,237.660 198.301 M229.574 200.010 C 229.341 200.167,229.427 200.187,229.894 200.083 C 230.676 199.908,230.846 199.786,230.301 199.790 C 230.077 199.792,229.750 199.891,229.574 200.010 M324.894 199.939 C 325.069 200.004,325.404 200.146,325.638 200.253 C 326.057 200.446,326.057 200.444,325.651 200.118 C 325.424 199.936,325.089 199.795,324.906 199.804 C 324.620 199.819,324.618 199.837,324.894 199.939 M222.434 201.824 C 222.207 202.008,222.157 202.089,222.322 202.003 C 222.487 201.917,222.918 201.776,223.279 201.690 C 223.883 201.546,223.892 201.531,223.392 201.511 C 223.092 201.499,222.661 201.640,222.434 201.824 M216.513 203.366 C 216.454 203.462,216.688 203.499,217.033 203.448 C 217.377 203.397,217.660 203.319,217.660 203.274 C 217.660 203.112,216.619 203.195,216.513 203.366 M340.426 205.046 C 340.601 205.111,340.936 205.252,341.170 205.360 C 341.589 205.552,341.589 205.550,341.183 205.225 C 340.956 205.043,340.620 204.901,340.438 204.910 C 340.152 204.925,340.150 204.943,340.426 205.046 M364.468 217.099 C 364.468 217.157,364.755 217.410,365.106 217.660 C 365.457 217.910,365.745 218.066,365.745 218.008 C 365.745 217.949,365.457 217.697,365.106 217.447 C 364.755 217.197,364.468 217.040,364.468 217.099 M33.883 221.636 C 34.088 221.690,34.423 221.690,34.628 221.636 C 34.832 221.583,34.665 221.539,34.255 221.539 C 33.846 221.539,33.678 221.583,33.883 221.636 M41.543 223.338 C 41.747 223.392,42.082 223.392,42.287 223.338 C 42.492 223.285,42.324 223.241,41.915 223.241 C 41.505 223.241,41.338 223.285,41.543 223.338 M45.124 223.906 C 45.173 223.948,45.500 224.047,45.851 224.125 C 46.317 224.230,46.403 224.210,46.170 224.052 C 45.883 223.858,44.911 223.722,45.124 223.906 M159.574 224.149 C 158.880 224.546,159.123 224.551,160.029 224.157 C 160.423 223.986,160.601 223.846,160.426 223.846 C 160.250 223.845,159.867 223.982,159.574 224.149 M50.266 225.040 C 50.471 225.094,50.806 225.094,51.011 225.040 C 51.215 224.987,51.048 224.943,50.638 224.943 C 50.229 224.943,50.061 224.987,50.266 225.040 M54.273 225.608 C 54.322 225.649,54.697 225.745,55.106 225.820 C 55.630 225.916,55.756 225.895,55.532 225.748 C 55.243 225.559,54.062 225.427,54.273 225.608 M152.471 225.706 C 152.411 225.802,152.645 225.839,152.990 225.788 C 153.335 225.738,153.617 225.659,153.617 225.614 C 153.617 225.452,152.576 225.536,152.471 225.706 M374.894 226.702 C 375.291 227.112,375.663 227.447,375.722 227.447 C 375.780 227.447,375.503 227.112,375.106 226.702 C 374.709 226.293,374.337 225.957,374.278 225.957 C 374.220 225.957,374.497 226.293,374.894 226.702 M65.268 227.385 C 65.533 227.435,65.916 227.433,66.120 227.380 C 66.323 227.327,66.106 227.285,65.638 227.288 C 65.170 227.290,65.004 227.334,65.268 227.385 M143.191 227.444 C 142.974 227.583,143.144 227.606,143.723 227.517 C 144.775 227.356,144.954 227.233,144.131 227.237 C 143.790 227.239,143.367 227.332,143.191 227.444 M70.230 227.948 C 70.279 227.990,70.654 228.085,71.064 228.161 C 71.588 228.257,71.714 228.235,71.489 228.088 C 71.201 227.899,70.019 227.768,70.230 227.948 M75.550 228.589 C 75.598 228.632,76.021 228.725,76.489 228.797 C 77.083 228.887,77.211 228.868,76.915 228.733 C 76.506 228.548,75.367 228.428,75.550 228.589 M134.574 228.723 C 134.306 228.839,134.267 228.906,134.468 228.906 C 134.644 228.906,134.979 228.824,135.213 228.723 C 135.481 228.608,135.520 228.541,135.319 228.541 C 135.144 228.541,134.809 228.623,134.574 228.723 M79.517 229.090 C 79.894 229.137,80.564 229.138,81.006 229.091 C 81.447 229.045,81.138 229.007,80.319 229.006 C 79.500 229.005,79.139 229.043,79.517 229.090 M131.014 229.090 C 131.397 229.138,131.971 229.137,132.291 229.088 C 132.611 229.040,132.298 229.001,131.596 229.002 C 130.894 229.003,130.632 229.043,131.014 229.090 M87.677 229.651 C 87.726 229.693,88.580 229.777,89.574 229.837 C 90.570 229.898,91.096 229.875,90.745 229.786 C 90.099 229.623,87.514 229.509,87.677 229.651 M122.128 229.796 C 121.668 229.899,121.993 229.918,122.979 229.847 C 123.856 229.784,124.614 229.696,124.663 229.653 C 124.818 229.516,122.903 229.624,122.128 229.796 M393.193 257.247 C 393.192 257.429,393.332 257.764,393.504 257.991 C 393.910 258.529,393.914 258.296,393.512 257.524 C 393.337 257.189,393.194 257.064,393.193 257.247 " stroke="none" fill="#344454" fill-rule="evenodd"></path></g></svg>