<svg xmlns="http://www.w3.org/2000/svg" width="1365" height="667" viewBox="0 0 1365 667">
  <defs>
    <style>
      .cls-1 {
        fill: #9fa0a4;
      }

      .cls-2 {
        fill: #1e2a40;
      }

      .cls-3 {
        fill: #f7c471;
      }

      .cls-4 {
        fill: none;
        stroke: #9fa0a4;
        stroke-miterlimit: 10;
        stroke-width: 2.085px;
      }
    </style>
  </defs>
  <g id="Vector_Smart_Object" data-name="Vector Smart Object" transform="translate(-470.943 -249.396)">
    <g id="Group_19" data-name="Group 19">
      <path id="Path_11" data-name="Path 11" class="cls-1" d="M1276.115,476.761a.92.92,0,0,1-.917-.918V407.054a.917.917,0,1,1,1.834,0v68.789A.917.917,0,0,1,1276.115,476.761Z"/>
    </g>
    <rect id="Rectangle_1" data-name="Rectangle 1" class="cls-2" width="185.969" height="151.046" rx="30.189" transform="translate(1183.131 495.985)"/>
    <g id="Group_20" data-name="Group 20">
      <path id="Path_12" data-name="Path 12" class="cls-3" d="M1282.478,475.843a6.362,6.362,0,1,1-6.364-6.369A6.365,6.365,0,0,1,1282.478,475.843Z"/>
    </g>
    <g id="Group_21" data-name="Group 21">
      <path id="Path_13" data-name="Path 13" class="cls-3" d="M1282.478,407.054a6.362,6.362,0,1,1-6.364-6.369A6.368,6.368,0,0,1,1282.478,407.054Z"/>
    </g>
    <g id="Group_22" data-name="Group 22">
      <path id="Path_14" data-name="Path 14" class="cls-1" d="M1283.449,746.125a.917.917,0,0,1-.917-.918V676.419a.917.917,0,1,1,1.834,0v68.789A.92.92,0,0,1,1283.449,746.125Z"/>
    </g>
    <rect id="Rectangle_2" data-name="Rectangle 2" class="cls-2" width="185.969" height="151.046" rx="30.189" transform="translate(1190.464 765.35)"/>
    <g id="Group_23" data-name="Group 23">
      <path id="Path_15" data-name="Path 15" class="cls-3" d="M1289.813,745.208a6.364,6.364,0,1,1-6.364-6.369A6.365,6.365,0,0,1,1289.813,745.208Z"/>
    </g>
    <g id="Group_24" data-name="Group 24">
      <path id="Path_16" data-name="Path 16" class="cls-3" d="M1289.813,676.419a6.364,6.364,0,1,1-6.364-6.369A6.368,6.368,0,0,1,1289.813,676.419Z"/>
    </g>
    <g id="Group_25" data-name="Group 25">
      <path id="Path_17" data-name="Path 17" class="cls-1" d="M1056.194,476.761a.916.916,0,0,1-.913-.918V407.054a.915.915,0,1,1,1.83,0v68.789A.917.917,0,0,1,1056.194,476.761Z"/>
    </g>
    <rect id="Rectangle_3" data-name="Rectangle 3" class="cls-2" width="185.969" height="151.046" rx="30.189" transform="translate(963.211 495.985)"/>
    <g id="Group_26" data-name="Group 26">
      <path id="Path_18" data-name="Path 18" class="cls-3" d="M1062.558,475.843a6.362,6.362,0,1,1-6.364-6.369A6.362,6.362,0,0,1,1062.558,475.843Z"/>
    </g>
    <g id="Group_27" data-name="Group 27">
      <path id="Path_19" data-name="Path 19" class="cls-3" d="M1062.558,407.054a6.362,6.362,0,1,1-6.364-6.369A6.366,6.366,0,0,1,1062.558,407.054Z"/>
    </g>
    <g id="Group_28" data-name="Group 28">
      <path id="Path_20" data-name="Path 20" class="cls-1" d="M1515.689,477.186a.917.917,0,0,1-.917-.918,25.4,25.4,0,0,0-25.355-25.376h-152.5a24.379,24.379,0,0,1-24.343-24.363V407.48a.917.917,0,1,1,1.834,0v19.049a22.545,22.545,0,0,0,22.509,22.528h152.5a27.233,27.233,0,0,1,27.189,27.212A.92.92,0,0,1,1515.689,477.186Z"/>
    </g>
    <rect id="Rectangle_4" data-name="Rectangle 4" class="cls-2" width="185.969" height="151.046" rx="30.189" transform="translate(1422.702 496.411)"/>
    <rect id="Rectangle_5" data-name="Rectangle 5" class="cls-2" width="185.969" height="151.046" rx="30.189" transform="translate(1649.973 492.24)"/>
    <g id="Group_29" data-name="Group 29">
      <path id="Path_21" data-name="Path 21" class="cls-3" d="M1522.049,476.268a6.362,6.362,0,1,1-6.36-6.369A6.365,6.365,0,0,1,1522.049,476.268Z"/>
    </g>
    <g id="Group_30" data-name="Group 30">
      <path id="Path_22" data-name="Path 22" class="cls-3" d="M1319.849,407.48a6.362,6.362,0,1,1-6.36-6.365A6.365,6.365,0,0,1,1319.849,407.48Z"/>
    </g>
    <g id="Group_31" data-name="Group 31">
      <path id="Path_23" data-name="Path 23" class="cls-1" d="M806.621,472.59a.92.92,0,0,1-.917-.918,27.23,27.23,0,0,1,27.189-27.212H985.4a22.544,22.544,0,0,0,22.509-22.528V402.883a.917.917,0,1,1,1.834,0v19.049A24.379,24.379,0,0,1,985.4,446.3h-152.5a25.4,25.4,0,0,0-25.355,25.376A.917.917,0,0,1,806.621,472.59Z"/>
    </g>
    <rect id="Rectangle_6" data-name="Rectangle 6" class="cls-2" width="185.969" height="151.046" rx="30.189" transform="translate(713.639 491.814)"/>
    <g id="Group_32" data-name="Group 32">
      <path id="Path_24" data-name="Path 24" class="cls-3" d="M812.985,471.672a6.362,6.362,0,1,1-6.364-6.369A6.362,6.362,0,0,1,812.985,471.672Z"/>
    </g>
    <g id="Group_33" data-name="Group 33">
      <path id="Path_25" data-name="Path 25" class="cls-3" d="M1015.185,402.883a6.362,6.362,0,1,1-6.364-6.369A6.366,6.366,0,0,1,1015.185,402.883Z"/>
    </g>
    <g id="Group_34" data-name="Group 34">
      <path id="Path_26" data-name="Path 26" class="cls-1" d="M1043.8,746.125a.917.917,0,0,1-.917-.918V676.419a.915.915,0,1,1,1.83,0v68.789A.916.916,0,0,1,1043.8,746.125Z"/>
    </g>
    <rect id="Rectangle_7" data-name="Rectangle 7" class="cls-2" width="185.969" height="151.046" rx="30.189" transform="translate(950.817 765.35)"/>
    <g id="Group_35" data-name="Group 35">
      <path id="Path_27" data-name="Path 27" class="cls-3" d="M1050.164,745.208a6.362,6.362,0,1,1-6.36-6.369A6.361,6.361,0,0,1,1050.164,745.208Z"/>
    </g>
    <g id="Group_36" data-name="Group 36">
      <path id="Path_28" data-name="Path 28" class="cls-3" d="M1050.164,676.419a6.362,6.362,0,1,1-6.36-6.369A6.365,6.365,0,0,1,1050.164,676.419Z"/>
    </g>
    <path id="Path_29" data-name="Path 29" class="cls-4" d="M1366.938,330.643h378.215V455.337"/>
    <g id="Group_37" data-name="Group 37">
      <path id="Path_30" data-name="Path 30" class="cls-3" d="M1751.517,456.84a6.364,6.364,0,1,1-6.364-6.369A6.365,6.365,0,0,1,1751.517,456.84Z"/>
    </g>
    <rect id="Rectangle_8" data-name="Rectangle 8" class="cls-2" width="185.969" height="151.046" rx="30.189" transform="translate(470.943 492.24)"/>
    <path id="Path_31" data-name="Path 31" class="cls-4" d="M935.78,330.643H557.565V455.337"/>
    <g id="Group_38" data-name="Group 38">
      <path id="Path_32" data-name="Path 32" class="cls-3" d="M551.2,456.84a6.364,6.364,0,1,0,6.364-6.369A6.365,6.365,0,0,0,551.2,456.84Z"/>
    </g>
    <rect id="Rectangle_9" data-name="Rectangle 9" class="cls-3" width="439.839" height="137.469" rx="68.705" transform="translate(931.267 249.395)"/>
  </g>
</svg>
